<?xml version="1.0" encoding="UTF-8"?>
<!DOCTYPE svg PUBLIC "-//W3C//DTD SVG 1.1//EN" "http://www.w3.org/Graphics/SVG/1.1/DTD/svg11.dtd">
<!-- Creator: CorelDRAW 2021 (64-Bit) -->
<svg xmlns="http://www.w3.org/2000/svg" xml:space="preserve" width="8.71816in" height="6.0645in" version="1.1" style="shape-rendering:geometricPrecision; text-rendering:geometricPrecision; image-rendering:optimizeQuality; fill-rule:evenodd; clip-rule:evenodd"
viewBox="0 0 8718.15 6064.49"
 xmlns:xlink="http://www.w3.org/1999/xlink"
 xmlns:xodm="http://www.corel.com/coreldraw/odm/2003">
 <defs>
  <style type="text/css">
   <![CDATA[
    .fil1 {fill:#02ACEF}
    .fil2 {fill:#03ACED}
    .fil3 {fill:#11AAE2}
    .fil4 {fill:#1AA4DC}
    .fil12 {fill:#301214}
    .fil7 {fill:#31849A}
    .fil10 {fill:#4B2127}
    .fil11 {fill:#70282F}
    .fil9 {fill:#8B3240}
    .fil8 {fill:#9A232A}
    .fil5 {fill:#C72A34}
    .fil6 {fill:#D4242C}
    .fil0 {fill:#E81D26}
   ]]>
  </style>
 </defs>
 <g id="Layer_x0020_1">
  <metadata id="CorelCorpID_0Corel-Layer"/>
  <g id="_2777777693440">
   <path class="fil0" d="M6941.5 5617.4l6.85 -52.46 46.15 -11.89 10.3 -58.26c52.74,-1.53 7.82,-2.12 32.95,-18.46l57.93 -47.24c0.98,-1.12 2.27,-2.89 3.24,-4.02l25.98 -23.98 -2.05 -60.36 26.07 -0.02c24.54,-150.87 20.17,-33.38 35.9,-111.56 4.84,-24.06 0.77,-41.14 0.67,-66.46l-31.96 0c-0.01,26.5 -0.15,23.81 -14.39,41.62 -27.69,34.63 5.1,19.53 -48.72,30.93l3.17 49.39c-30.22,0.89 -11.61,0.17 -21.83,6.72 -8.69,5.58 -8.55,19.94 -63.45,25.13 -2.93,33.54 -10.65,23.22 -11.46,58.4l-76.68 9.08c-2.09,42.58 5.7,5.45 -23.33,27.84l-32.87 25.3c-17.61,12.14 -14.48,-24.86 -16.61,23.68l-141.09 3.93 -302.86 1.35 0 28.79 -302.87 0 0 -28.85 -295.65 0 0 -28.84 -122.59 0 0 -28.85 -93.74 0 0 -28.85 -115.37 0 0 -36.05 -151.43 0 0 -28.85 -57.7 0 0 -28.84 -93.74 0 0 -28.85 -86.53 0 0 -28.85 -93.75 0 0 -28.84 -57.68 0 0 -36.06 -64.9 0 0 -28.84 -86.53 0 0 -28.85 -57.69 0 0 -28.85 -93.74 0c-1.63,-73.19 -27.22,15.51 -28.85,-57.68l-93.74 0 0 -36.06 -57.69 0 0 -28.85 -57.68 0 0 -28.85 -64.9 0 0 -28.84 -57.7 0 0 -28.85 -57.68 0c-1.68,-75.2 -28.85,20.87 -28.85,-64.9l-64.9 0 0 -28.85 -57.68 0 0 -28.84 -57.69 0c-1.7,-76.18 -34.35,18.5 -36.06,-57.68l-57.68 0 0 -28.85 -57.68 0c0,-85.78 -27.17,10.3 -28.85,-64.9l-64.9 0c-1.63,-73.19 -27.21,15.5 -28.85,-57.68l-57.68 0 0 -28.85 -64.9 0c-1.2,-53.76 3.31,-9.74 -17.84,-32.64 -1,-1.08 -2.66,-2.45 -3.63,-3.57l-22.27 -28.21c-9.91,-10.83 -12.76,23.44 -13.94,-29.32l-57.69 0 0 -28.84 -64.9 0c-1.19,-53.77 2.66,-11.4 -9.84,-26.21l-37.99 -34.13c-12.48,-15.02 -8.65,27.7 -9.85,-26.2l-57.68 0c0,-43.11 -7,-32.64 -32.07,-54.46l-44.06 -35.26c-13.05,-12.61 -17.02,-6.38 -17.61,-32.87l-57.68 0c-1.63,-73.19 -27.21,15.51 -28.85,-57.68l-64.9 0c0,-23.49 3.44,-15.57 -6.19,-29.86l-15.4 -13.45c-31.88,-29.17 -35.28,-13.65 -36.1,-50.44l-57.69 0c-1.13,-50.94 -2.96,-18.89 -25.04,-39.86 -1.52,-1.44 -5.45,-6 -7.03,-7.38l-44.09 -35.24c-18.21,-17.2 -17.58,18.57 -17.58,-40.11l-57.7 0c-1.14,-51.56 -3.42,-19.05 -13.69,-29.56 -1.05,-1.06 -2.92,-2.19 -4,-3.21l-132.47 -127.13c-23.16,-32.81 -29.05,-2.03 -30.1,-49.21l-57.69 0c-1.18,-52.98 3.52,-13.14 -10.46,-25.6l-94.13 -86.14c-10.98,-10.89 -1.43,1.09 -10.94,-10.69l-80.46 -85.4c-10.75,-7.35 1.59,3.67 -13.29,-8.35 -11.79,-9.52 0.2,0.02 -10.69,-10.94l-371.39 -371.35c-1.06,-1.04 -2.72,-2.39 -3.77,-3.43l-28.65 -29.03c-1.04,-1.07 -2.52,-2.6 -3.54,-3.68l-6.53 -7.89c-10.51,-10.28 22,-12.56 -29.56,-13.7l0 -64.9c-51.54,-1.15 -19.05,-3.42 -29.56,-13.7 -1.06,-1.05 -2.18,-2.91 -3.21,-4l-14.24 -14.61c-1.03,-1.06 -2.57,-2.55 -3.59,-3.61 -1.04,-1.06 -2.41,-2.7 -3.45,-3.76l-28.46 -22.02c-1.23,-0.9 -2.99,-2.1 -4.17,-3.05l-75.19 -83.46c-24.72,-28.37 -7.28,-31.18 -47.24,-32.07l0 -57.68c-54.77,-1.22 -10.3,2.88 -25.98,-10.08l-38.44 -33.67c-10.83,-9.91 23.44,-12.77 -29.32,-13.94l0 -64.9c-73.19,-1.63 15.51,-27.22 -57.69,-28.85l0 -57.68c-51.37,-1.15 -11.36,4.71 -32.87,-17.61 -1.03,-1.07 -2.37,-2.74 -3.38,-3.82 -33.3,-35.33 -9.8,-43.46 -57.5,-43.46l0 -57.69 -28.84 0 0 -57.68c-73.2,-1.63 15.5,-27.21 -57.7,-28.85l0 -64.9 -28.84 0 0 -57.68 -28.85 0 0 -57.68c-89.3,0 13.6,-34.31 -64.9,-36.06l0 -57.68 -28.85 0 0 -57.68 -28.84 0 0 -64.9 -28.85 0 0 -57.7 -28.85 0 0 -86.53 -36.05 0 0 -93.74 -28.85 0 0 -86.53 -28.84 0 0 -93.74 -28.85 0 0 -122.59 -28.85 0 0 -360.55 28.85 0 0 -86.53 28.85 0 0 -93.75 28.84 0 0 -57.68c53.76,-1.2 9.74,3.31 32.64,-17.85l31.78 -25.9c10.83,-9.91 -23.44,-12.77 29.33,-13.94l0 -64.9c25.96,-0.58 19.95,-4.64 32.94,-17.53 14.88,-14.77 24.15,-13.39 24.74,-40.16l57.69 0 0 -28.85 64.9 0 0 -28.84 57.69 0 0 -28.85 57.68 0 0 -36.05 122.59 0 0 -28.85 209.11 0 0 -28.85 302.87 0 0 28.85 237.96 0 0 28.85 209.12 0 0 36.05 93.75 1.81 147.92 3.43 0 26.63 120.36 0.5 0 -32.37 -1.76 -36.04 -86.25 -0.01 0 -28.85 -57.68 0 0 -28.85 -93.74 0 0 -28.84 -86.54 0 0 -28.85 -93.74 0 0 -28.85 -86.53 0 0 -36.05 -122.59 0 0 -28.85 -151.43 0 0 -28.84 -122.59 0 0 -28.85 -180.27 0 0 -28.85 -237.96 0 0 -28.84 -360.56 0 0 28.84 -180.27 0 0 28.85 -86.53 0 0 28.85 -93.75 0 0 28.84 -57.68 0 0 28.85 -64.9 0 0 36.05 -57.69 0 0 28.85 -57.68 0c-1.15,51.6 -3.48,19.01 -13.65,29.61 -1.04,1.08 -2.89,2.23 -3.95,3.26 -1.07,1.03 -2.75,2.37 -3.83,3.39l-36.41 28.49c-1.16,0.94 -2.69,2.43 -3.79,3.41l-50.47 50.48c-1,1.11 -2.49,2.63 -3.42,3.79l-11.07 17.78c-37.52,51.91 -27.7,39.48 -53.68,40.06l0 57.68 -28.84 0 0 57.68 -36.06 0 0 64.9 -28.84 0 0 86.53 -28.85 0 0 93.75 -28.85 0 0 389.4 28.85 0 0 122.58 28.85 0 0 115.38 28.84 0 0 122.58 36.06 0 0 57.68 28.84 0 0 93.75 28.85 0 0 57.68 28.85 0 0 93.75 28.84 0 0 57.68 28.85 0 0 57.69c85.78,0 -10.3,27.17 64.9,28.84l0 93.75c73.19,1.63 -15.5,27.21 57.68,28.85l0 57.68c76.18,1.7 -18.49,34.36 57.69,36.06l0 57.69 36.06 0 0 57.68c73.19,1.63 -15.5,27.21 57.68,28.85l0 64.9c73.19,1.63 -15.5,27.21 57.69,28.84l0 57.69c54.82,1.22 10.21,-2.85 25.98,10.07 63.8,52.24 17.91,53.72 67.76,54.83l0 57.69c51.59,1.15 11.2,-5.21 32.77,17.7l27.56 30.13c15.01,12.48 -27.72,8.65 26.2,9.85l0 64.9c53.76,1.2 9.74,-3.31 32.64,17.85l28.48 21.99c16.02,14.82 -21.72,16.64 32.63,17.85l0 57.69c50.94,1.13 18.9,2.96 39.86,25.04l45.91 55.04c11.7,11.24 3.57,13.08 29.61,13.66l0 57.68 64.9 0 0 28.85 28.84 0 0 64.9c48.73,1.08 18.6,3.54 39.64,25.26l11.13 10.5c1.04,1.06 2.49,2.62 3.52,3.7l21.54 21.72c1.05,1.04 2.57,2.54 3.62,3.59l18.31 17.75c1.25,0.91 3.21,1.84 4.5,2.72l79.32 79.32c0.88,1.28 1.81,3.25 2.72,4.5l78.89 79.75c10.89,10.97 -1.1,1.42 10.69,10.94 14.78,11.93 4.6,1.46 17.78,11.06 1.22,0.89 2.99,2.09 4.17,3.05l7.3 7.12c1.06,1.04 2.34,2.77 3.39,3.82l151.81 158.26c1.25,0.91 3.21,1.84 4.5,2.72l13.29 8.35c1.16,0.94 2.68,2.43 3.79,3.43 4.07,3.65 3.6,4.48 10.35,11.28 7.78,7.83 3.88,3.32 11.17,10.48l10.64 10.99c1.04,1.06 2.41,2.71 3.46,3.76l14.86 13.98c1,1.1 2.49,2.62 3.43,3.79l198.33 205.48c16.23,17.63 16.63,-22.12 17.85,32.64l57.68 0c0.53,23.83 -1.08,13.31 6.57,22.26l90.75 82.32c1.07,1.03 2.59,2.52 3.68,3.54l15.39 13.46c9.56,14.44 6.19,6.19 6.19,29.86l57.69 0c0.53,23.83 -1.09,13.31 6.57,22.26l68.94 60.86c1.73,1.68 5.88,5.14 7.61,6.81 47.23,45.59 38.6,15.9 39.46,54.29l57.68 0c0,33.78 9.38,28.82 28.84,43.28l18.46 17.6c15.25,14.7 16.44,-19.67 17.6,32.87l57.7 0c1.14,51.58 -5.21,11.19 17.7,32.78l7.6 6.82c1.08,1.01 2.47,2.65 3.54,3.67 1.08,1.02 2.46,2.65 3.54,3.67l15.45 13.39c12.48,15.02 8.65,-27.7 9.85,26.21l64.9 0c0,23.49 -3.44,15.57 6.19,29.86 0.83,1.24 2.55,2.57 3.52,3.7l34.27 30.63c10.3,10.5 12.55,-21.97 13.7,29.56l57.68 0c1.7,76.18 34.37,-18.5 36.06,57.68l57.68 0c1.68,75.2 28.85,-20.87 28.85,64.9l57.69 0c1.69,76.18 34.35,-18.5 36.05,57.68l57.69 0c1.63,73.2 27.21,-15.5 28.84,57.68l57.7 0c1.74,78.5 36.05,-24.4 36.05,64.9l57.68 0 0 28.85 57.69 0c1.15,51.72 -5.15,10.94 17.61,32.87l22.78 20.49c1.76,1.2 7.81,3.66 9.52,4.91 12.15,8.86 13.84,-23.81 15,28.27l57.68 0 0 28.85 57.68 0 0 36.06 64.9 0 0 28.85 57.69 0 0 28.84 57.68 0c1.63,73.19 27.21,-15.5 28.85,57.69l64.9 0 0 28.84 57.68 0 0 36.06 57.68 0 0 28.84 64.9 0 0 28.85 57.7 0 0 28.85 57.68 0 0 28.84 64.9 0 0 28.85 57.68 0 0 36.05 57.7 0 0 28.85 64.9 0 0 28.85 86.54 0 0 28.84 93.74 0 0 28.85 57.69 0 0 28.85 57.68 0 0 36.05 93.75 0 0 28.85 86.53 0 0 28.84 64.9 0 0 28.85 86.53 0 0 28.85 122.59 0 0 28.84 122.58 0 0 36.06 86.54 0 0 28.84 93.74 0 0 28.85 237.96 0 0 28.85 151.43 0 0 28.84 569.67 0 0 -28.84 151.43 0 0 -28.85 115.38 0 0 -28.85 93.75 0c1.67,-75.19 28.84,20.87 28.84,-64.9l57.69 0 0 -28.84 64.9 0 0 -28.85 28.84 0 -2.73 -28.85z"/>
   <path class="fil1" d="M6381.19 1918.14l0 36.72 -68.22 -5.5 -2.56 -62.25 -209.35 -0.61 1.51 2645.67 630.5 1.22c15.83,-387.46 4.99,-781.64 5.61,-1171.03l27.24 0 0.02 -28.04 48.48 1.6c10.78,51.95 31.63,-5.04 31.63,63.29 92.42,0 -7.69,24.09 69.2,25.73l3.02 54.1c49.97,1.95 19.33,-7.69 33.16,32.75l47.8 1.62 4.93 62.94c32.78,0.92 10.06,-0.18 19.67,6.74l77.16 68.21c0.98,1.09 2.32,2.72 3.3,3.79l75.47 76.11c1.05,1.41 1.96,3.36 2.91,4.83l16.66 25.05c0.87,1.06 2.27,2.63 3.17,3.71l35.39 30.9c1,0.82 2.41,2.37 3.39,3.22 28.31,24.5 -26.14,15.97 33.6,17.71l2.18 55.71 -1.38 28.84c50.69,1.13 15.42,-0.51 33.57,24.35 0.9,1.22 2.1,3 3.05,4.17l11.23 10.4c12.87,16.09 8.83,-29.04 10.06,26l122.59 0c1.18,-52.75 4.29,-12.81 26.94,-45.17 10.16,-14.51 -6.28,3.05 5.13,-9.29 12.88,-13.93 -27.69,-9.26 25.61,-10.44l0 -57.68 57.68 0 0 -28.85 36.06 0 0 -57.68c40.95,-0.92 18.4,-2.36 47.63,-38.92 12.86,-16.09 8.83,29.06 10.06,-25.98l57.68 0 0 -57.69c56.55,-1.26 10.92,0.2 36.22,-21.46l21.63 -14.42c1.17,-0.94 2.69,-2.43 3.81,-3.42 1.57,-1.39 5.48,-5.98 6.97,-7.45 1.05,-1.04 2.48,-2.64 3.53,-3.69l101.19 -107.92c1.05,-1.06 2.49,-2.63 3.53,-3.69 7.05,-7.26 2.28,-3.2 10.33,-11.31l47.52 -39.01c13.97,-12.7 9.28,27.57 10.46,-25.6l28.85 0 0 1168.19 28.84 0 0 28.85 663.42 0 0 -28.85 28.84 0 0 -2675.3c-52.74,-1.17 -12.81,-4.29 -45.17,-26.94 -14.5,-10.15 3.05,6.28 -9.29,-5.13 -13.93,-12.88 -9.25,27.68 -10.44,-25.61l-28.84 0 0 28.84 -57.7 0 0 -28.84 -57.68 0 0 28.84 -64.9 0c-0.54,24.08 -0.26,13.39 -6.45,22.4 -7.72,11.27 -1.89,1.28 -15.15,13.69l-68.31 75.91c-1.04,1.06 -2.48,2.63 -3.53,3.68 -1.05,1.05 -2.63,2.5 -3.68,3.54 -7.28,7.15 -3.38,2.63 -11.16,10.47 -11.58,11.67 -2.72,5.47 -14.15,14.7l-68.43 61.37c-18.42,18.47 10.65,-11.77 -7.48,6.95 -1.03,1.06 -2.52,2.59 -3.53,3.67 -1.02,1.08 -2.29,2.81 -3.32,3.89 -1.44,1.52 -4.95,6.51 -6.57,7.85 -15.04,12.47 27.72,8.64 -26.2,9.84l0 64.9c-51.63,1.15 -11.13,-5.19 -32.78,17.7l-172.94 173.19c-1.04,1.07 -2.38,2.74 -3.41,3.81l-89.82 83.25c-14.55,15.39 19.74,16.53 -32.77,17.7l0 64.9c-52.81,1.17 -16.15,0.45 -36.09,21.59l-43.34 43.19c-1.05,1.05 -2.41,2.7 -3.46,3.75l-118.97 119c-15.98,16.93 -6.67,20.93 -36.09,21.59l0 57.68 -64.9 0 0 64.9c-51.76,1.16 -12.48,-3.66 -32.77,17.71l-93.75 93.74c-22.9,21.75 -16.55,-18.9 -17.7,32.78l-93.75 0c-1.08,-48.75 -3.54,-18.57 -25.26,-39.64l-31.71 -33.19c-10.51,-10.28 22,-12.55 -29.56,-13.7l0 -57.69c-56.68,0 -23.84,-9.15 -54.07,-39.67l-169.39 -169.52c-9.61,-12.33 -0.46,-0.04 -10.7,-10.93 -1.02,-1.08 -2.58,-2.54 -3.6,-3.61l-10.03 -11.61c-15.15,-12.4 27.75,-8.63 -26.22,-9.83l0 -57.69c-24.08,-0.54 -13.39,-0.28 -22.4,-6.44l-59.96 -62.63c-1.24,-1.72 -3.97,-7.49 -5.23,-9.2l-139.59 -134.43c-1.03,-1.06 -2.52,-2.6 -3.54,-3.67 -1.01,-1.08 -2.29,-2.82 -3.31,-3.89 -21.75,-22.91 18.9,-16.55 -32.78,-17.7l0 -64.9c-51.12,0 -26.66,-4.6 -50.56,-28.76 -1.04,-1.06 -2.71,-2.41 -3.76,-3.45l-7.18 -7.25c-1.03,-1.06 -2.37,-2.73 -3.41,-3.8 -1.02,-1.07 -2.37,-2.74 -3.41,-3.81l-36.06 -36.06c-1.06,-1.04 -2.73,-2.38 -3.81,-3.41 -1.06,-1.03 -2.73,-2.38 -3.81,-3.41l-88.56 -91.72c-1.25,-0.89 -3.19,-1.87 -4.4,-2.8 -1.19,-0.92 -2.88,-2.22 -4.02,-3.19 -25.3,-21.68 20.34,-20.21 -36.21,-21.47l0 -57.68c-24.09,-0.54 -13.45,-0.41 -22.42,-6.43l-17.78 -18.29c-1.06,-1.04 -2.91,-2.19 -3.94,-3.26l-7.38 -7.06c-9.47,-14.56 -6.18,-6.11 -6.18,-29.87l-22.21 0z"/>
   <polygon class="fil2" points="4838.61,1860.44 4809.76,1860.44 4809.76,1954.19 4780.92,1954.19 4780.92,2401.27 4809.76,2401.27 4809.76,2458.97 5141.48,2458.97 5141.48,2495.02 5199.16,2495.02 5199.16,3720.89 5170.32,3720.89 5170.32,3814.64 5141.48,3814.64 5141.48,3872.33 5112.63,3872.33 5112.63,3901.17 5083.79,3901.17 5083.79,3937.22 5018.89,3937.22 5018.89,3966.08 4867.46,3966.08 4867.46,3994.92 4838.61,3994.92 4838.61,3966.08 4687.18,3966.08 4687.18,3937.22 4658.33,3937.22 4658.33,3901.17 4600.65,3901.17 4600.65,3872.33 4571.8,3872.33 4571.8,3814.64 4542.96,3814.64 4542.96,3785.8 4506.9,3785.8 4506.9,3331.5 4478.06,3331.5 4478.06,3302.66 3850.7,3302.66 3850.7,3872.33 3879.54,3872.33 3879.54,4023.76 3908.39,4023.76 3908.39,4081.45 3937.23,4081.45 3937.23,4117.5 3966.07,4117.5 3966.07,4175.19 4002.13,4175.19 4002.13,4232.89 4030.97,4232.89 4030.97,4261.72 4059.82,4261.72 4059.82,4297.78 4088.67,4297.78 4088.67,4326.62 4117.5,4326.62 4117.5,4355.47 4146.35,4355.47 4146.35,4384.32 4182.4,4384.32 4182.4,4413.16 4240.09,4413.16 4240.09,4442 4268.93,4442 4268.93,4478.06 4326.63,4478.06 4326.63,4506.9 4391.53,4506.9 4391.53,4535.75 4478.06,4535.75 4478.06,4564.59 4571.8,4564.59 4571.8,4593.43 5170.32,4593.43 5170.32,4564.59 5264.06,4564.59 5264.06,4535.75 5321.76,4535.75 5321.76,4506.9 5379.44,4506.9 5379.44,4478.06 5473.18,4478.06 5473.18,4442 5502.02,4442 5502.02,4413.16 5530.87,4413.16 5530.87,4384.32 5559.72,4384.32 5559.72,4355.47 5624.62,4355.47 5624.62,4326.62 5653.46,4326.62 5653.46,4297.78 5682.3,4297.78 5682.3,4261.72 5711.15,4261.72 5711.15,4204.04 5768.84,4204.04 5768.84,4146.35 5804.89,4146.35 5804.89,4081.45 5833.73,4081.45 5833.73,3994.92 5862.58,3994.92 5862.58,3937.22 5891.42,3937.22 5891.42,3843.49 5920.27,3843.49 5920.27,1889.29 5891.42,1889.29 5891.42,1860.44 5862.58,1860.44 5862.58,1831.6 4838.61,1831.6 "/>
   <polygon class="fil2" points="2495.03,1831.6 2257.06,1831.6 2257.06,1860.44 2163.31,1860.44 2163.31,1889.29 2105.63,1889.29 2105.63,1918.14 2047.94,1918.14 2047.94,1954.19 1954.2,1954.19 1954.2,1983.04 1925.35,1983.04 1925.35,2011.88 1867.66,2011.88 1867.66,2040.72 1838.82,2040.72 1838.82,2069.57 1802.77,2069.57 1802.77,2098.41 1773.92,2098.41 1773.92,2134.47 1745.07,2134.47 1745.07,2163.31 1716.23,2163.31 1716.23,2221 1687.38,2221 1687.38,2249.84 1658.54,2249.84 1658.54,2314.74 1622.49,2314.74 1622.49,2430.12 1658.54,2430.12 1658.54,2495.02 1687.38,2495.02 1687.38,2523.87 1716.23,2523.87 1716.23,2552.71 1745.07,2552.71 1745.07,2610.4 1773.92,2610.4 1773.92,2639.24 1802.77,2639.24 1802.77,2675.3 1838.82,2675.3 1838.82,2732.99 1867.66,2732.99 1867.66,2761.83 1896.5,2761.83 1896.5,2790.67 1925.35,2790.67 1925.35,2819.52 1954.2,2819.52 1954.2,2855.57 1983.03,2855.57 1983.03,2884.41 2019.1,2884.41 2019.1,2913.26 2047.94,2913.26 2047.94,2970.95 2076.78,2970.95 2076.78,2999.8 2105.63,2999.8 2105.63,3035.85 2134.47,3035.85 2134.47,3064.69 2163.31,3064.69 2163.31,3093.53 2199.37,3093.53 2199.37,3122.38 2228.21,3122.38 2228.21,3151.23 2257.06,3151.23 2257.06,3180.07 2285.9,3180.07 2285.9,3216.13 2314.75,3216.13 2314.75,3244.97 2343.59,3244.97 2343.59,3273.81 2379.65,3273.81 2379.65,3302.66 2408.49,3302.66 2408.49,3331.5 2437.33,3331.5 2437.33,3360.34 2466.18,3360.34 2466.18,3396.4 2495.03,3396.4 2495.03,3425.24 2523.86,3425.24 2523.86,3454.09 2559.92,3454.09 2559.92,3482.93 2588.76,3482.93 2588.76,3511.78 2646.46,3511.78 2646.46,3540.62 2797.88,3540.62 2797.88,3576.68 2884.41,3576.68 2884.41,3605.52 2949.31,3605.52 2949.31,3634.36 3007.01,3634.36 3007.01,3692.06 3035.84,3692.06 3035.84,3901.17 3064.69,3901.17 3064.69,3937.22 3129.59,3937.22 3129.59,3966.08 3158.44,3966.08 3158.44,3994.92 3216.12,3994.92 3216.12,4023.76 3244.97,4023.76 3244.97,4052.61 3281.02,4052.61 3281.02,4081.45 3338.71,4081.45 3338.71,4117.5 3367.56,4117.5 3367.56,4146.35 3396.4,4146.35 3396.4,4175.19 3461.3,4175.19 3461.3,4204.04 3490.14,4204.04 3490.14,4232.89 3576.67,4232.89 3576.67,4175.19 3605.52,4175.19 3605.52,4117.5 3641.58,4117.5 3641.58,4081.45 3670.42,4081.45 3670.42,4023.76 3699.27,4023.76 3699.27,3901.17 3728.11,3901.17 3728.11,3605.52 3699.27,3605.52 3699.27,3482.93 3670.42,3482.93 3670.42,3425.24 3641.58,3425.24 3641.58,3360.34 3605.52,3360.34 3605.52,3302.66 3576.67,3302.66 3576.67,3273.81 3547.84,3273.81 3547.84,3244.97 3518.99,3244.97 3518.99,3216.13 3490.14,3216.13 3490.14,3180.07 3461.3,3180.07 3461.3,3151.23 3396.4,3151.23 3396.4,3122.38 3338.71,3122.38 3338.71,3093.53 3281.02,3093.53 3281.02,3064.69 3187.28,3064.69 3187.28,3035.85 3035.84,3035.85 3035.84,2999.8 2855.58,2999.8 2855.58,2970.95 2675.3,2970.95 2675.3,2942.1 2495.03,2942.1 2495.03,2913.26 2379.65,2913.26 2379.65,2884.41 2314.75,2884.41 2314.75,2855.57 2257.06,2855.57 2257.06,2790.67 2228.21,2790.67 2228.21,2610.4 2257.06,2610.4 2257.06,2581.55 2285.9,2581.55 2285.9,2523.87 2343.59,2523.87 2343.59,2495.02 2379.65,2495.02 2379.65,2458.97 2466.18,2458.97 2466.18,2430.12 2769.04,2430.12 2769.04,2458.97 2826.73,2458.97 2826.73,2495.02 2884.41,2495.02 2884.41,2523.87 2920.47,2523.87 2920.47,2581.55 2949.31,2581.55 2949.31,2639.24 2978.16,2639.24 2978.16,2675.3 3605.52,2675.3 3605.52,2401.27 3576.67,2401.27 3576.67,2343.59 3547.84,2343.59 3547.84,2278.69 3518.99,2278.69 3518.99,2221 3490.14,2221 3490.14,2192.16 3461.3,2192.16 3461.3,2163.31 3425.24,2163.31 3425.24,2134.47 3396.4,2134.47 3396.4,2098.41 3367.56,2098.41 3367.56,2069.57 3338.71,2069.57 3338.71,2040.72 3309.87,2040.72 3309.87,2011.88 3281.02,2011.88 3281.02,1983.04 3216.12,1983.04 3216.12,1954.19 3158.44,1954.19 3158.44,1918.14 3100.75,1918.14 3100.75,1889.29 3035.84,1889.29 3035.84,1860.44 2949.31,1860.44 2949.31,1831.6 2704.14,1831.6 2704.14,1802.76 2495.03,1802.76 "/>
   <path class="fil3" d="M7152.55 5739.99l0 -37.46 -28.04 0 -57.68 1.62c0,21.84 4.05,17.15 -6.32,29.52l-33.53 24.16c-22.72,21.21 -24.02,-6.45 -25.05,39.84l-57.7 0 0 28.85 -57.68 0 0 28.84 -64.9 0 0 28.85 -86.54 0 0 36.05 -64.9 0 0 28.85 -180.28 0 0 28.85 -209.12 0 0 28.84 -331.7 0 0 -28.84 -237.96 0 0 -28.85 -209.13 0 0 -28.85 -151.43 0 0 -36.05 -86.54 0 0 -28.85 -122.58 0 0 -28.84 -151.43 0 0 -28.85 -57.68 0 0 -28.85 -93.75 0 0 -28.84 -57.68 0 0 -36.06 -93.75 0 0 -28.84 -86.53 0 0 -28.85 -57.68 0 0 -28.85 -93.75 0 0 -28.84 -86.53 0c-1.74,-78.5 -36.05,24.4 -36.05,-64.9l-57.7 0 0 -28.85 -86.53 0 0 -28.85 -64.9 0 0 -28.84 -57.68 0 0 -28.85 -57.69 0 0 -28.85 -64.9 0 0 -36.05 -57.69 0 0 -28.85 -57.69 0c-1.69,-76.18 -34.35,18.5 -36.05,-57.68l-57.69 0 0 -28.85 -86.53 0c-1.75,-78.5 -36.06,24.41 -36.06,-64.9l-57.68 0c-1.63,-73.18 -27.21,15.51 -28.85,-57.68l-93.75 0c-1.63,-73.2 -27.21,15.51 -28.84,-57.68l-57.69 0c-1.67,-75.2 -28.84,20.87 -28.84,-64.9l-64.9 0c-1.64,-73.19 -27.21,15.5 -28.85,-57.69l-57.68 0c-1.63,-73.18 -27.21,15.51 -28.85,-57.68l-64.9 0 0 -28.85 -57.69 0c0,-23.49 3.44,-15.57 -6.19,-29.86l-37.79 -34.31c-10.31,-10.5 -12.56,21.96 -13.71,-29.56l-64.9 0c-1.14,-51.58 5.21,-11.2 -17.7,-32.77l-7.59 -6.82c-30.82,-28.98 -31.53,-8.43 -32.39,-46.94l-57.69 0 0 -36.05 -64.9 0c-1.15,-51.59 5.21,-11.2 -17.71,-32.78l-7.59 -6.83c-30.82,-28.96 -31.53,-8.41 -32.38,-46.93l-57.7 0c-0.76,-34.6 0.86,-21.83 -35.97,-50.56l-30.53 -27.17c-21.46,-29.33 -26.06,8.25 -27.24,-44.87l-57.69 0c-1.63,-73.2 -27.21,15.51 -28.84,-57.69l-64.9 0c-1.18,-52.81 0.41,-15.65 -17.7,-32.77 -1.08,-1.02 -2.81,-2.3 -3.9,-3.31 -1.08,-1.01 -2.61,-2.5 -3.69,-3.52l-39.78 -46.76c-21.67,-25.3 -20.21,20.33 -21.46,-36.21l-57.69 0c-1.16,-52.13 -6.29,-16.74 -32.71,-39.4l-54.59 -53.58c-5.39,-8.26 -5.89,2.12 -6.44,-22.4l-57.69 0c0,-50.17 -2.1,-25.36 -21.42,-43.48l-36.42 -28.47c-1.17,-0.95 -2.69,-2.43 -3.8,-3.43l-79.18 -79.46c-1.07,-1.03 -2.63,-2.47 -3.7,-3.51 -1.06,-1.04 -2.49,-2.62 -3.54,-3.67 -1.05,-1.05 -2.39,-2.71 -3.45,-3.76 -1.06,-1.04 -2.44,-2.69 -3.5,-3.72l-11.62 -10c-11.87,-11.75 -13.64,18.25 -13.64,-36.85l-64.9 0 0 -28.85 -28.85 0 0 -57.68 -28.85 0 0 -28.85 -57.68 0c-1.2,-53.96 3.22,-9.42 -17.8,-32.68 -1,-1.1 -2.61,-2.5 -3.58,-3.63l-151.98 -150.89c-1.06,-1.05 -2.5,-2.62 -3.54,-3.68l-21.71 -21.56c-0.99,-1.11 -2.44,-2.67 -3.37,-3.83 -0.94,-1.19 -2.09,-3.01 -2.98,-4.24l-47.3 -46.43c-29.26,-29.84 -12.4,-35.07 -50.61,-35.93l0 -57.68 -57.69 0 0 -28.85 -28.85 0 0 -64.9 -36.05 0 0 -28.84 -57.69 0 0 -57.69c-24.94,-0.56 -15.09,-0.57 -26.22,-9.83l-67.35 -76.88c-13.97,-11.28 -4.1,-1.88 -13.21,-8.41l-18.66 -17.39c-15.89,-12.93 28.94,-8.85 -25.98,-10.08l0 -57.68c-52.66,-1.17 -16.27,-0.42 -36.25,-21.44 -1.02,-1.07 -2.59,-2.53 -3.6,-3.61l-42.65 -51.09c-12.61,-13.04 -6.39,-17.02 -32.87,-17.6l0 -57.69c-23.5,0 -15.57,3.44 -29.86,-6.19l-34.32 -37.8c-10.5,-10.3 21.96,-12.56 -29.56,-13.7l0 -64.9c-73.2,-1.63 15.5,-27.21 -57.68,-28.84l0 -57.7c-54.37,-1.21 -6.24,4.02 -36.32,-21.38 -1.14,-0.96 -2.89,-2.2 -4.08,-3.12 -40.79,-31.63 -5.31,-39.33 -53.35,-40.4l0 -57.68c-73.19,-1.63 15.5,-27.21 -57.68,-28.85l0 -57.69 -28.85 0 0 -64.9 -28.85 0 0 -57.68c-85.77,0 10.3,-27.17 -64.9,-28.85l0 -64.9c-73.18,-1.63 15.51,-27.21 -57.68,-28.85l0 -86.53 -28.85 0 0 -64.9c-75.19,-1.67 20.87,-28.84 -64.9,-28.84l0 -86.53 -28.84 0 0 -93.75 -28.85 0 0 -57.68 -28.85 0 0 -93.74 -28.84 0 0 -86.54 -28.85 0 0 -151.43 -36.05 0 0 -151.43 -28.85 0 0 -209.12 -28.85 0 0 -151.43 28.85 0 0 -115.38 28.85 0 0 -122.59 36.05 0 0 -122.59 28.85 0 0 -57.69c73.2,-1.63 -15.51,-27.21 57.68,-28.84l0 -64.9 28.85 0 0 -57.7c40.74,-0.9 15.46,-4.48 53.69,-32.84l18.3 -17.76c1.05,-1.05 2.57,-2.55 3.62,-3.59l86.97 -93.31c18.11,-17.12 16.52,20.04 17.7,-32.77l64.9 0 0 -28.85 57.69 0 0 -28.85 57.68 0c1.68,-75.2 28.85,20.88 28.85,-64.9l93.74 0 0 -28.84 122.59 0 0 -28.85 115.37 0 0 -28.85 151.43 0 0 -28.84 -180.27 0 0 28.84 -209.13 0 0 28.85 -122.59 0 0 28.85 -57.68 0 0 28.84 -57.69 0 0 36.06 -93.74 0c-1.15,51.58 5.2,11.19 -17.7,32.77l-30.13 27.56c-12.48,15.02 -8.65,-27.7 -9.85,26.21l-64.9 0c-0.96,43.05 -6.55,15.74 -47.21,60.94l-57.54 65.04c-1.07,1.03 -2.64,2.48 -3.7,3.53 -50.56,50.57 -27.14,50.75 -71.82,50.75l0 57.7 -28.85 0 0 64.9 -28.85 0 0 57.68 -28.84 0 0 57.68 -28.85 0 0 93.75 -28.85 0 0 86.53 -36.05 0 0 511.98 36.05 0 0 151.43 28.85 0 0 93.74 28.85 0 0 86.53 28.84 0 0 122.59 28.85 0 0 86.53 28.85 0 0 64.9 36.05 0 0 57.68 28.85 0 0 57.69 28.84 0 0 64.9 28.85 0 0 57.68 28.85 0 0 57.68 28.84 0 0 64.9 36.06 0 0 57.69c73.18,1.63 -15.51,27.21 57.68,28.84l0 57.69c76.18,1.7 -18.5,34.36 57.68,36.05l0 57.69 28.85 0 0 57.69c27.65,0 25.31,1.87 40.11,17.58l20.46 22.8c1.2,1.76 3.65,7.81 4.91,9.52 8.85,12.15 -23.82,13.83 28.27,15l0 57.69c73.18,1.63 -15.51,27.21 57.68,28.85l0 57.68c78.5,1.74 -24.4,36.05 64.9,36.05l0 57.69c51.58,1.15 11.2,-5.21 32.77,17.7l27.55 30.14c15.02,12.47 -27.7,8.65 26.21,9.85l0 64.9c24.08,0.54 13.39,0.26 22.4,6.45 1.18,0.81 2.68,2.45 3.81,3.4l6.56 7.86c1.02,1.08 2.3,2.81 3.31,3.89l89.14 83.93c15.02,12.48 -27.71,8.65 26.21,9.85l0 64.9c51.35,1.14 11.47,-4.74 32.77,17.7l46.67 47.07c6.71,6.77 6.31,7.66 10.35,11.28 1.11,0.99 2.63,2.48 3.79,3.42l43.47 35.85c1.06,1.04 2.72,2.39 3.78,3.43l158.77 158.52c2.62,2.36 5.23,6.06 10.34,11.3 7.39,7.58 4.8,4.14 11,10.63 20.79,21.78 -8.94,24.22 39.6,25.3l0 64.9c24.08,0.54 13.39,0.27 22.4,6.44l71.18 73.04c14.32,11.66 3.61,1.53 13.21,8.42l18.66 17.39c15.89,12.93 -28.94,8.86 25.98,10.07l0 122.59 28.85 0 0 122.59 28.85 0 0 86.53 28.84 0 0 93.74 28.85 0 0 57.69c50.43,0 34.61,12.52 54.32,32.21 1.05,1.05 2.63,2.49 3.67,3.54l13.99 14.85c1.06,1.04 2.71,2.41 3.76,3.46l22.02 28.46c0.89,1.23 2.09,2.99 3.04,4.17l61.23 61.35c1.06,1.05 2.72,2.39 3.78,3.43l69.54 60.26c12.4,15.16 8.62,-27.75 9.83,26.23l57.68 0 0 36.05 57.68 0 0 28.85 64.9 0 0 28.85 57.69 0 0 28.84 57.68 0 0 28.85 216.33 0 0 28.85 180.28 0 0 36.05 57.69 0c1.63,73.19 27.21,-15.51 28.85,57.68l57.68 0c1.17,52.98 -3.52,13.15 10.46,25.6l40.78 31.33c10.19,10.59 12.51,-21.98 13.66,29.6l57.69 0 0 36.06 57.68 0c1.18,52.98 -3.52,13.15 10.46,25.6l40.79 31.32c10.18,10.59 12.51,-21.97 13.65,29.61l57.69 0c1.63,73.2 27.21,-15.5 28.84,57.69l64.9 0c0,85.77 27.17,-10.3 28.85,64.9l57.68 0 0 28.84 57.7 0 0 28.85 64.9 0c1.15,51.58 -5.21,11.2 17.71,32.77 1.08,1.02 2.8,2.3 3.9,3.31l18.41 17.65c17.17,15.81 17.67,-10.2 17.67,40.02l93.75 0 0 28.84 57.68 0c1.63,73.19 27.21,-15.5 28.85,57.69l57.68 0 0 28.84 64.9 0c1.68,75.2 28.85,-20.87 28.85,64.9l57.68 0 0 28.85 64.9 0 0 28.85 57.69 0 0 28.84 57.69 0 0 28.85 64.9 0 0 28.85 57.69 0 0 36.05 86.53 0 0 28.85 64.9 0 0 28.84 57.68 0 0 28.85 57.7 0 0 28.85 93.74 0 0 28.84 86.54 0 0 36.06 64.9 0 0 28.84 57.69 0 0 28.85 122.59 0 0 28.85 86.53 0 0 28.84 64.9 0 0 28.85 86.53 0 0 36.05 122.59 0 0 28.85 151.43 0 0 28.85 86.54 0 0 28.84 151.43 0 0 28.85 266.81 0 0 28.85 692.26 0 0 -28.85 180.27 0 0 -28.85 93.74 0 0 -28.84 86.54 0 0 -28.85 64.9 0 0 -28.85 86.54 0c0,-23.49 -3.44,-15.57 6.19,-29.86 0.83,-1.23 2.55,-2.56 3.52,-3.7 0.98,-1.12 2.87,-2.23 3.93,-3.28l30.35 -27.34c10.31,-10.5 12.56,21.97 13.7,-29.56l64.9 0c0.59,-26.13 9.93,-25.45 24.74,-40.16 12.96,-12.86 6.17,-16.94 32.95,-17.54l-0.81 -28.84z"/>
   <path class="fil4" d="M7277.09 3872.33l-2.18 -55.71c-59.74,-1.74 -5.29,6.79 -33.6,-17.71 -0.98,-0.85 -2.39,-2.4 -3.39,-3.22l-35.39 -30.9c-0.9,-1.08 -2.31,-2.65 -3.17,-3.71l-16.66 -25.05c-0.95,-1.46 -1.87,-3.41 -2.91,-4.83l-75.47 -76.11c-0.98,-1.06 -2.33,-2.7 -3.3,-3.79l-77.16 -68.21c-9.61,-6.92 13.11,-5.82 -19.67,-6.74l-4.93 -62.94 -47.8 -1.62c-13.82,-40.43 16.81,-30.8 -33.16,-32.75l-3.02 -54.1c-76.89,-1.63 23.22,-25.73 -69.2,-25.73 0,-68.33 -20.86,-11.34 -31.63,-63.29l-48.48 -1.6 -0.02 28.04 -27.24 0c-0.62,389.39 10.22,783.57 -5.61,1171.03l-630.5 -1.22 -1.51 -2645.67 209.35 0.61 2.56 62.25 68.22 5.5 0 -36.72c-27.42,-70.82 -33.91,12.07 -35.47,-57.7l-93.75 0 0 -28.84 -151.43 0 0 28.84 -28.84 0 0 2704.14 28.84 0 0 28.85 634.57 0 0 -28.85 28.85 0 0 -1168.19 57.68 0 0 57.69c61.02,1.35 3.3,-2.2 44.64,27.47l88.42 91.85c1,1.1 2.68,2.44 3.7,3.5l65.27 64.54c11.57,11.66 2.72,5.47 14.15,14.7 14.88,12.02 2.54,1 13.28,8.35l98.75 103.16c1.04,1.06 2.41,2.7 3.45,3.76l43.27 43.27c1.07,1.04 2.71,2.41 3.76,3.46 58.32,57.59 45.46,-4.17 46.76,54.18l30 0z"/>
   <path class="fil5" d="M4030.97 1081.66l0 -28.85 -28.84 0 0 -36.06 -64.9 0 0 -28.85 -57.69 0c-1.63,-73.19 -27.21,15.5 -28.84,-57.68l-64.9 0c-1.63,-73.2 -27.22,15.5 -28.85,-57.69l-86.53 0 0 -36.06 -64.9 0c-1.63,-73.19 -27.21,15.5 -28.85,-57.68l-57.68 0 0 -28.85 -93.75 0 0 -28.85 -57.68 0c-1.68,-75.2 -28.85,20.87 -28.85,-64.9l-57.68 0 0 -28.84 -93.75 0 0 -28.85 -57.68 0 0 -28.85 -64.9 0 0 -28.84 -86.54 0 0 -28.85 -92.26 0 0 32.37 -120.36 -0.5 0 -26.63 -147.92 -3.43 0 27.03 86.53 0 0 28.84 122.59 0 0 28.85 122.58 0 0 28.85 57.69 0 0 28.84 93.74 0 0 36.06 57.69 0 0 28.84 86.54 0 0 28.85 93.74 0 0 28.85 57.69 0 0 28.84 64.9 0 0 28.85 86.53 0 0 36.06 57.68 0c1.7,76.18 34.36,-18.5 36.06,57.69l86.53 0 0 28.84 57.69 0 0 28.85 64.9 0 0 28.85 57.68 0 0 36.06 57.68 0 0 28.85 64.9 0z"/>
   <path class="fil6" d="M7182.19 5045.03l-28.8 3.24 -0.04 86c-53.35,1.19 -8.92,-7.26 -32.87,17.61l-20.49 22.77c-1.2,1.76 -3.66,7.81 -4.91,9.52 -8.86,12.15 23.81,13.84 -28.27,15l0 57.68 -36.06 0 0 28.85 -57.68 0c-1.63,73.19 -27.21,-15.51 -28.85,57.68l-57.68 0 0 36.05 -64.9 0 0 28.85 -57.68 0 0 28.85 -57.7 0 0 27.54 141.09 -3.93c2.13,-48.54 -1,-11.54 16.61,-23.68l32.87 -25.3c29.04,-22.39 21.24,14.74 23.33,-27.84l76.68 -9.08c0.81,-35.18 8.54,-24.86 11.46,-58.4 54.9,-5.18 54.76,-19.55 63.45,-25.13 10.21,-6.55 -8.39,-5.83 21.83,-6.72l-3.17 -49.39c53.83,-11.41 21.04,3.7 48.72,-30.93 14.24,-17.81 14.39,-15.12 14.39,-41.62l31.96 0c0.09,25.33 4.17,42.41 -0.67,66.46 -15.72,78.18 -11.35,-39.31 -35.9,111.56l-26.07 0.02 2.05 60.36 -25.98 23.98c-0.96,1.13 -2.26,2.9 -3.24,4.02l-57.93 47.24c-25.13,16.34 19.79,16.93 -32.95,18.46l-10.3 58.26 -46.15 11.89 -6.85 52.46 60.43 0c1.17,-52.43 0.59,-16.44 17.6,-32.87l22.61 -20.65c64.81,-46.89 -19.88,-38.58 53.52,-40.22l0 -57.69c73.2,-1.63 -15.5,-27.21 57.69,-28.84l0 -57.7 28.84 0 0 -64.9 28.85 0 0 -57.68 36.05 0 0 -151.43 28.85 0 0 -54.35 -28.91 0 -0.03 -35.55 -39.13 0 0 29.51 -25.69 0z"/>
   <path class="fil7" d="M7124.51 5702.53l28.04 0 0 37.46 29.65 0c0,-44.11 -3.48,-20.11 21.43,-43.48l39.69 -32.42c17.63,-16.22 -22.12,-16.63 32.63,-17.84l0 -57.69c73.2,-1.63 -15.5,-27.21 57.68,-28.85l0 -64.9 28.85 0 0 -115.38 28.85 0 0 -64.9 36.05 0 0 -180.27 -36.05 0 0 93.74 -28.85 0 0 86.53 -28.85 0 0 64.9 -28.84 0 0 86.54 -28.85 0 0 57.69c-53.34,1.19 -12.83,-3.64 -25.44,10.61l-35.63 36.49c-1.1,1 -2.23,2.88 -3.33,3.87 -10.9,9.83 23.49,12.75 -29.35,13.93l0 57.69c-73.18,1.63 15.51,27.21 -57.68,28.85l0 27.44z"/>
   <polygon class="fil8" points="7182.19,5045.03 7207.88,5045.03 7207.88,5015.52 7247.01,5015.52 7247.04,5051.07 7275.94,5051.07 7275.94,4802.55 7247.1,4802.55 7247.1,4867.45 7211.04,4867.45 7211.04,4953.98 7182.19,4953.98 "/>
   <polygon class="fil9" points="4182.4,1168.19 4182.4,1139.35 4146.35,1139.35 4146.35,1110.5 4088.67,1110.5 4088.67,1081.66 4030.97,1081.66 4030.97,1110.5 4059.82,1110.5 4059.82,1139.35 4117.5,1139.35 4117.5,1168.19 "/>
   <polygon class="fil10" points="4420.37,1319.62 4420.37,1290.78 4391.53,1290.78 4391.53,1261.93 4326.63,1261.93 4326.63,1290.78 4362.68,1290.78 4362.68,1319.62 "/>
   <polygon class="fil11" points="4182.4,1168.19 4182.4,1197.03 4240.09,1197.03 4240.09,1168.19 "/>
   <polygon class="fil10" points="4326.63,1261.93 4326.63,1233.09 4268.93,1233.09 4268.93,1261.93 "/>
   <polygon class="fil10" points="4420.37,1319.62 4420.37,1348.46 4478.06,1348.46 4478.06,1319.62 "/>
   <polygon class="fil12" points="4506.9,1413.36 4542.96,1413.36 4542.96,1377.31 4506.9,1377.31 "/>
  </g>
 </g>
</svg>
