<?xml version="1.0" encoding="UTF-8"?>
<!DOCTYPE svg PUBLIC "-//W3C//DTD SVG 1.1//EN" "http://www.w3.org/Graphics/SVG/1.1/DTD/svg11.dtd">
<!-- Creator: CorelDRAW 2021 (64-Bit) -->
<svg xmlns="http://www.w3.org/2000/svg" xml:space="preserve" width="9.73459in" height="2.80333in" version="1.1" style="shape-rendering:geometricPrecision; text-rendering:geometricPrecision; image-rendering:optimizeQuality; fill-rule:evenodd; clip-rule:evenodd"
viewBox="0 0 9734.59 2803.33"
 xmlns:xlink="http://www.w3.org/1999/xlink"
 xmlns:xodm="http://www.corel.com/coreldraw/odm/2003">
 <defs>
  <style type="text/css">
   <![CDATA[
    .fil1 {fill:#02ACEF}
    .fil2 {fill:#03ACED}
    .fil3 {fill:#11AAE2}
    .fil4 {fill:#1AA4DC}
    .fil12 {fill:#301214}
    .fil7 {fill:#31849A}
    .fil10 {fill:#4B2127}
    .fil11 {fill:#70282F}
    .fil9 {fill:#8B3240}
    .fil8 {fill:#9A232A}
    .fil5 {fill:#C72A34}
    .fil6 {fill:#D4242C}
    .fil0 {fill:#E81D26}
    .fil13 {fill:white;fill-rule:nonzero}
   ]]>
  </style>
 </defs>
 <g id="Layer_x0020_1">
  <metadata id="CorelCorpID_0Corel-Layer"/>
  <g id="_2775121327744">
   <g>
    <path class="fil0" d="M3208.73 2596.66l3.17 -24.25 21.33 -5.5 4.76 -26.93c24.38,-0.71 3.61,-0.98 15.23,-8.54l26.78 -21.84c0.45,-0.52 1.05,-1.34 1.5,-1.86l12.01 -11.09 -0.95 -27.9 12.05 -0.01c11.35,-69.74 9.33,-15.43 16.59,-51.57 2.24,-11.12 0.35,-19.02 0.31,-30.72l-14.78 0c-0,12.25 -0.07,11.01 -6.65,19.24 -12.8,16.01 2.36,9.03 -22.52,14.3l1.47 22.83c-13.97,0.41 -5.37,0.08 -10.09,3.11 -4.02,2.58 -3.95,9.22 -29.33,11.61 -1.35,15.5 -4.93,10.73 -5.3,27l-35.44 4.2c-0.97,19.69 2.64,2.52 -10.79,12.87l-15.19 11.69c-8.14,5.61 -6.69,-11.49 -7.68,10.94l-65.22 1.81 -140 0.63 0 13.31 -140 0 0 -13.33 -136.67 0 0 -13.33 -56.67 0 0 -13.33 -43.33 0 0 -13.33 -53.33 0 0 -16.67 -70 0 0 -13.33 -26.67 0 0 -13.33 -43.33 0 0 -13.33 -40 0 0 -13.33 -43.33 0 0 -13.33 -26.67 0 0 -16.67 -30 0 0 -13.33 -40 0 0 -13.33 -26.67 0 0 -13.33 -43.33 0c-0.76,-33.83 -12.58,7.17 -13.33,-26.67l-43.33 0 0 -16.67 -26.67 0 0 -13.33 -26.67 0 0 -13.33 -30 0 0 -13.33 -26.67 0 0 -13.33 -26.67 0c-0.78,-34.76 -13.33,9.65 -13.33,-30l-30 0 0 -13.33 -26.67 0 0 -13.33 -26.67 0c-0.79,-35.22 -15.88,8.55 -16.67,-26.67l-26.67 0 0 -13.33 -26.67 0c0,-39.65 -12.56,4.76 -13.33,-30l-30 0c-0.75,-33.83 -12.58,7.17 -13.33,-26.67l-26.67 0 0 -13.33 -30 0c-0.56,-24.85 1.53,-4.5 -8.25,-15.09 -0.46,-0.5 -1.23,-1.13 -1.68,-1.65l-10.3 -13.04c-4.58,-5 -5.9,10.84 -6.44,-13.56l-26.67 0 0 -13.33 -30 0c-0.55,-24.85 1.23,-5.27 -4.55,-12.11l-17.56 -15.78c-5.77,-6.94 -4,12.81 -4.56,-12.11l-26.67 0c0,-19.93 -3.24,-15.09 -14.83,-25.18l-20.37 -16.3c-6.03,-5.83 -7.87,-2.95 -8.14,-15.19l-26.67 0c-0.76,-33.83 -12.58,7.17 -13.33,-26.67l-30 0c0,-10.86 1.59,-7.2 -2.86,-13.8l-7.12 -6.22c-14.74,-13.48 -16.31,-6.31 -16.69,-23.31l-26.67 0c-0.52,-23.55 -1.37,-8.73 -11.57,-18.43 -0.7,-0.67 -2.52,-2.78 -3.25,-3.41l-20.38 -16.29c-8.42,-7.95 -8.13,8.59 -8.13,-18.54l-26.67 0c-0.53,-23.83 -1.58,-8.81 -6.33,-13.67 -0.48,-0.49 -1.35,-1.01 -1.85,-1.48l-61.24 -58.77c-10.7,-15.17 -13.43,-0.94 -13.91,-22.75l-26.67 0c-0.55,-24.49 1.63,-6.07 -4.83,-11.83l-43.51 -39.82c-5.07,-5.04 -0.66,0.5 -5.06,-4.94l-37.19 -39.48c-4.97,-3.4 0.74,1.7 -6.14,-3.86 -5.45,-4.4 0.09,0.01 -4.94,-5.06l-171.68 -171.66c-0.49,-0.48 -1.26,-1.11 -1.74,-1.59l-13.24 -13.42c-0.48,-0.49 -1.17,-1.2 -1.64,-1.7l-3.02 -3.65c-4.86,-4.75 10.17,-5.8 -13.67,-6.33l0 -30c-23.83,-0.53 -8.81,-1.58 -13.67,-6.33 -0.49,-0.48 -1.01,-1.35 -1.48,-1.85l-6.58 -6.75c-0.48,-0.49 -1.19,-1.18 -1.66,-1.67 -0.48,-0.49 -1.11,-1.25 -1.59,-1.74l-13.16 -10.18c-0.57,-0.41 -1.38,-0.97 -1.93,-1.41l-34.76 -38.58c-11.43,-13.11 -3.37,-14.41 -21.84,-14.83l0 -26.67c-25.32,-0.56 -4.76,1.33 -12.01,-4.66l-17.77 -15.56c-5,-4.58 10.84,-5.9 -13.56,-6.44l0 -30c-33.83,-0.76 7.17,-12.58 -26.67,-13.33l0 -26.67c-23.74,-0.53 -5.25,2.18 -15.19,-8.14 -0.48,-0.49 -1.09,-1.27 -1.56,-1.77 -15.39,-16.33 -4.53,-20.09 -26.58,-20.09l0 -26.67 -13.33 0 0 -26.67c-33.83,-0.75 7.17,-12.58 -26.67,-13.33l0 -30 -13.33 0 0 -26.67 -13.33 0 0 -26.67c-41.28,0 6.29,-15.86 -30,-16.67l0 -26.67 -13.33 0 0 -26.67 -13.33 0 0 -30 -13.33 0 0 -26.67 -13.33 0 0 -40 -16.67 0 0 -43.33 -13.33 0 0 -40 -13.33 0 0 -43.33 -13.33 0 0 -56.67 -13.33 0 0 -166.67 13.33 0 0 -40 13.33 0 0 -43.33 13.33 0 0 -26.67c24.85,-0.56 4.5,1.53 15.09,-8.25l14.69 -11.97c5,-4.58 -10.84,-5.9 13.56,-6.44l0 -30c12,-0.27 9.22,-2.15 15.23,-8.1 6.88,-6.83 11.16,-6.19 11.44,-18.56l26.67 0 0 -13.33 30 0 0 -13.33 26.67 0 0 -13.33 26.67 0 0 -16.67 56.67 0 0 -13.33 96.67 0 0 -13.33 140 0 0 13.33 110 0 0 13.33 96.67 0 0 16.67 43.33 0.84 68.38 1.59 0 12.31 55.64 0.23 0 -14.96 -0.81 -16.66 -39.87 -0 0 -13.33 -26.67 0 0 -13.33 -43.33 0 0 -13.33 -40 0 0 -13.33 -43.33 0 0 -13.33 -40 0 0 -16.67 -56.67 0 0 -13.33 -70 0 0 -13.33 -56.67 0 0 -13.33 -83.33 0 0 -13.33 -110 0 0 -13.33 -166.67 0 0 13.33 -83.33 0 0 13.33 -40 0 0 13.33 -43.33 0 0 13.33 -26.67 0 0 13.33 -30 0 0 16.67 -26.67 0 0 13.33 -26.67 0c-0.53,23.85 -1.61,8.79 -6.31,13.69 -0.48,0.5 -1.33,1.03 -1.83,1.51 -0.5,0.48 -1.27,1.09 -1.77,1.57l-16.83 13.17c-0.54,0.43 -1.24,1.12 -1.75,1.58l-23.33 23.33c-0.46,0.51 -1.15,1.22 -1.58,1.75l-5.11 8.22c-17.35,24 -12.81,18.25 -24.81,18.52l0 26.67 -13.33 0 0 26.67 -16.67 0 0 30 -13.33 0 0 40 -13.33 0 0 43.33 -13.33 0 0 180 13.33 0 0 56.67 13.33 0 0 53.33 13.33 0 0 56.67 16.67 0 0 26.67 13.33 0 0 43.33 13.33 0 0 26.67 13.33 0 0 43.33 13.33 0 0 26.67 13.33 0 0 26.67c39.65,0 -4.76,12.56 30,13.33l0 43.33c33.83,0.76 -7.17,12.58 26.67,13.33l0 26.67c35.22,0.78 -8.55,15.88 26.67,16.67l0 26.67 16.67 0 0 26.67c33.83,0.75 -7.17,12.58 26.67,13.33l0 30c33.83,0.75 -7.17,12.58 26.67,13.33l0 26.67c25.34,0.56 4.72,-1.32 12.01,4.65 29.49,24.15 8.28,24.83 31.32,25.35l0 26.67c23.85,0.53 5.18,-2.41 15.15,8.19l12.74 13.93c6.94,5.77 -12.81,4 12.11,4.55l0 30c24.85,0.56 4.5,-1.53 15.09,8.25l13.17 10.17c7.41,6.85 -10.04,7.69 15.08,8.25l0 26.67c23.55,0.52 8.74,1.37 18.43,11.57l21.22 25.44c5.41,5.19 1.65,6.05 13.69,6.31l0 26.67 30 0 0 13.33 13.33 0 0 30c22.52,0.5 8.6,1.63 18.32,11.68l5.15 4.85c0.48,0.49 1.15,1.21 1.63,1.71l9.96 10.04c0.48,0.48 1.19,1.17 1.67,1.66l8.46 8.2c0.58,0.42 1.48,0.85 2.08,1.26l36.67 36.67c0.41,0.59 0.83,1.5 1.26,2.08l36.46 36.87c5.04,5.07 -0.51,0.66 4.94,5.06 6.83,5.52 2.13,0.67 8.22,5.11 0.57,0.41 1.38,0.97 1.93,1.41l3.37 3.29c0.49,0.48 1.08,1.28 1.57,1.77l70.17 73.16c0.58,0.42 1.48,0.85 2.08,1.26l6.14 3.86c0.54,0.43 1.24,1.12 1.75,1.58 1.88,1.69 1.67,2.07 4.78,5.21 3.6,3.62 1.8,1.54 5.16,4.84l4.92 5.08c0.48,0.49 1.11,1.25 1.6,1.74l6.87 6.46c0.46,0.51 1.15,1.21 1.58,1.75l91.68 94.98c7.5,8.15 7.69,-10.22 8.25,15.09l26.67 0c0.24,11.02 -0.5,6.15 3.04,10.29l41.95 38.05c0.5,0.48 1.2,1.17 1.7,1.63l7.11 6.22c4.42,6.68 2.86,2.86 2.86,13.8l26.67 0c0.24,11.02 -0.5,6.15 3.04,10.29l31.87 28.13c0.8,0.78 2.72,2.37 3.52,3.15 21.83,21.07 17.84,7.35 18.24,25.09l26.67 0c0,15.61 4.33,13.32 13.33,20l8.53 8.14c7.05,6.8 7.6,-9.09 8.14,15.19l26.67 0c0.53,23.84 -2.41,5.17 8.18,15.15l3.51 3.15c0.5,0.47 1.14,1.22 1.64,1.7 0.5,0.47 1.14,1.22 1.64,1.7l7.14 6.19c5.77,6.94 4,-12.81 4.56,12.11l30 0c0,10.86 -1.59,7.2 2.86,13.8 0.39,0.57 1.18,1.19 1.63,1.71l15.84 14.16c4.76,4.85 5.8,-10.16 6.33,13.67l26.67 0c0.79,35.22 15.89,-8.55 16.67,26.67l26.67 0c0.78,34.76 13.33,-9.65 13.33,30l26.67 0c0.78,35.22 15.88,-8.55 16.67,26.67l26.67 0c0.75,33.83 12.58,-7.17 13.33,26.67l26.67 0c0.81,36.29 16.67,-11.28 16.67,30l26.67 0 0 13.33 26.67 0c0.53,23.91 -2.38,5.06 8.14,15.19l10.53 9.47c0.81,0.56 3.61,1.69 4.4,2.27 5.61,4.09 6.4,-11.01 6.93,13.07l26.67 0 0 13.33 26.67 0 0 16.67 30 0 0 13.33 26.67 0 0 13.33 26.67 0c0.75,33.83 12.58,-7.17 13.33,26.67l30 0 0 13.33 26.67 0 0 16.67 26.67 0 0 13.33 30 0 0 13.33 26.67 0 0 13.33 26.67 0 0 13.33 30 0 0 13.33 26.67 0 0 16.67 26.67 0 0 13.33 30 0 0 13.33 40 0 0 13.33 43.33 0 0 13.33 26.67 0 0 13.33 26.67 0 0 16.67 43.33 0 0 13.33 40 0 0 13.33 30 0 0 13.33 40 0 0 13.33 56.67 0 0 13.33 56.67 0 0 16.67 40 0 0 13.33 43.33 0 0 13.33 110 0 0 13.33 70 0 0 13.33 263.33 0 0 -13.33 70 0 0 -13.33 53.33 0 0 -13.33 43.33 0c0.77,-34.76 13.33,9.65 13.33,-30l26.67 0 0 -13.33 30 0 0 -13.33 13.33 0 -1.26 -13.33z"/>
    <path class="fil1" d="M2949.73 886.67l0 16.97 -31.54 -2.54 -1.18 -28.78 -96.77 -0.28 0.7 1222.97 291.45 0.57c7.32,-179.11 2.31,-361.32 2.59,-541.31l12.59 0 0.01 -12.96 22.41 0.74c4.98,24.02 14.62,-2.33 14.62,29.26 42.72,0 -3.56,11.14 31.99,11.89l1.4 25.01c23.1,0.9 8.94,-3.55 15.33,15.14l22.1 0.75 2.28 29.09c15.15,0.43 4.65,-0.08 9.09,3.11l35.67 31.53c0.45,0.5 1.07,1.26 1.53,1.75l34.89 35.18c0.48,0.65 0.91,1.56 1.35,2.23l7.7 11.58c0.4,0.49 1.05,1.22 1.47,1.72l16.36 14.28c0.46,0.38 1.11,1.09 1.57,1.49 13.09,11.32 -12.08,7.38 15.53,8.19l1.01 25.75 -0.64 13.33c23.43,0.52 7.13,-0.24 15.52,11.26 0.41,0.57 0.97,1.39 1.41,1.93l5.19 4.81c5.95,7.44 4.08,-13.43 4.65,12.02l56.67 0c0.54,-24.38 1.98,-5.92 12.45,-20.88 4.7,-6.71 -2.9,1.41 2.37,-4.3 5.95,-6.44 -12.8,-4.28 11.84,-4.83l0 -26.67 26.67 0 0 -13.33 16.67 0 0 -26.67c18.93,-0.43 8.5,-1.09 22.02,-17.99 5.94,-7.44 4.08,13.43 4.65,-12.01l26.67 0 0 -26.67c26.14,-0.58 5.05,0.09 16.74,-9.92l10 -6.67c0.54,-0.43 1.24,-1.12 1.76,-1.58 0.72,-0.64 2.53,-2.76 3.22,-3.44 0.48,-0.48 1.15,-1.22 1.63,-1.7l46.78 -49.89c0.48,-0.49 1.15,-1.22 1.63,-1.7 3.26,-3.35 1.06,-1.48 4.78,-5.23l21.96 -18.03c6.46,-5.87 4.29,12.74 4.83,-11.83l13.33 0 0 540 13.33 0 0 13.33 306.67 0 0 -13.33 13.33 0 0 -1236.67c-24.38,-0.54 -5.92,-1.98 -20.88,-12.46 -6.7,-4.69 1.41,2.9 -4.3,-2.37 -6.44,-5.95 -4.28,12.8 -4.83,-11.84l-13.33 0 0 13.33 -26.67 0 0 -13.33 -26.67 0 0 13.33 -30 0c-0.25,11.13 -0.12,6.19 -2.98,10.35 -3.57,5.21 -0.87,0.59 -7,6.33l-31.58 35.09c-0.48,0.49 -1.15,1.22 -1.63,1.7 -0.48,0.48 -1.21,1.15 -1.7,1.63 -3.37,3.3 -1.56,1.22 -5.16,4.84 -5.35,5.39 -1.26,2.53 -6.54,6.8l-31.63 28.37c-8.52,8.54 4.92,-5.44 -3.46,3.21 -0.48,0.49 -1.17,1.2 -1.63,1.7 -0.47,0.5 -1.06,1.3 -1.54,1.8 -0.67,0.7 -2.29,3.01 -3.04,3.63 -6.95,5.76 12.81,4 -12.11,4.55l0 30c-23.87,0.53 -5.15,-2.4 -15.15,8.19l-79.94 80.06c-0.48,0.49 -1.1,1.26 -1.57,1.76l-41.52 38.48c-6.72,7.11 9.12,7.64 -15.15,8.19l0 30c-24.41,0.54 -7.46,0.21 -16.69,9.98l-20.04 19.96c-0.48,0.48 -1.11,1.25 -1.6,1.73l-55 55.01c-7.39,7.83 -3.08,9.68 -16.69,9.98l0 26.67 -30 0 0 30c-23.93,0.54 -5.77,-1.69 -15.15,8.19l-43.33 43.33c-10.59,10.06 -7.65,-8.74 -8.18,15.15l-43.33 0c-0.5,-22.54 -1.64,-8.59 -11.68,-18.32l-14.66 -15.34c-4.86,-4.75 10.17,-5.8 -13.67,-6.33l0 -26.67c-26.2,0 -11.02,-4.23 -24.99,-18.34l-78.3 -78.36c-4.44,-5.7 -0.21,-0.02 -4.95,-5.05 -0.47,-0.5 -1.19,-1.17 -1.67,-1.67l-4.63 -5.37c-7,-5.73 12.83,-3.99 -12.12,-4.54l0 -26.67c-11.13,-0.25 -6.19,-0.13 -10.35,-2.98l-27.72 -28.95c-0.57,-0.8 -1.83,-3.46 -2.42,-4.25l-64.52 -62.14c-0.48,-0.49 -1.17,-1.2 -1.64,-1.7 -0.47,-0.5 -1.06,-1.3 -1.53,-1.8 -10.06,-10.59 8.74,-7.65 -15.15,-8.19l0 -30c-23.63,0 -12.32,-2.13 -23.37,-13.3 -0.48,-0.49 -1.25,-1.11 -1.74,-1.59l-3.32 -3.35c-0.48,-0.49 -1.1,-1.26 -1.57,-1.76 -0.47,-0.5 -1.09,-1.27 -1.57,-1.76l-16.67 -16.67c-0.49,-0.48 -1.26,-1.1 -1.76,-1.57 -0.49,-0.48 -1.26,-1.1 -1.76,-1.57l-40.94 -42.4c-0.58,-0.41 -1.48,-0.86 -2.04,-1.3 -0.55,-0.43 -1.33,-1.03 -1.86,-1.48 -11.69,-10.02 9.4,-9.34 -16.74,-9.93l0 -26.67c-11.14,-0.25 -6.22,-0.19 -10.36,-2.97l-8.22 -8.45c-0.49,-0.48 -1.35,-1.01 -1.82,-1.51l-3.41 -3.26c-4.38,-6.73 -2.86,-2.82 -2.86,-13.81l-10.27 0z"/>
    <polygon class="fil2" points="2236.67,860 2223.33,860 2223.33,903.33 2210,903.33 2210,1110 2223.33,1110 2223.33,1136.67 2376.67,1136.67 2376.67,1153.33 2403.33,1153.33 2403.33,1720 2390,1720 2390,1763.33 2376.67,1763.33 2376.67,1790 2363.33,1790 2363.33,1803.33 2350,1803.33 2350,1820 2320,1820 2320,1833.33 2250,1833.33 2250,1846.67 2236.67,1846.67 2236.67,1833.33 2166.67,1833.33 2166.67,1820 2153.33,1820 2153.33,1803.33 2126.67,1803.33 2126.67,1790 2113.33,1790 2113.33,1763.33 2100,1763.33 2100,1750 2083.33,1750 2083.33,1540 2070,1540 2070,1526.67 1780,1526.67 1780,1790 1793.33,1790 1793.33,1860 1806.67,1860 1806.67,1886.67 1820,1886.67 1820,1903.33 1833.33,1903.33 1833.33,1930 1850,1930 1850,1956.67 1863.33,1956.67 1863.33,1970 1876.67,1970 1876.67,1986.67 1890,1986.67 1890,2000 1903.33,2000 1903.33,2013.33 1916.67,2013.33 1916.67,2026.67 1933.33,2026.67 1933.33,2040 1960,2040 1960,2053.33 1973.33,2053.33 1973.33,2070 2000,2070 2000,2083.33 2030,2083.33 2030,2096.67 2070,2096.67 2070,2110 2113.33,2110 2113.33,2123.33 2390,2123.33 2390,2110 2433.33,2110 2433.33,2096.67 2460,2096.67 2460,2083.33 2486.67,2083.33 2486.67,2070 2530,2070 2530,2053.33 2543.33,2053.33 2543.33,2040 2556.67,2040 2556.67,2026.67 2570,2026.67 2570,2013.33 2600,2013.33 2600,2000 2613.33,2000 2613.33,1986.67 2626.67,1986.67 2626.67,1970 2640,1970 2640,1943.33 2666.67,1943.33 2666.67,1916.67 2683.33,1916.67 2683.33,1886.67 2696.67,1886.67 2696.67,1846.67 2710,1846.67 2710,1820 2723.33,1820 2723.33,1776.67 2736.67,1776.67 2736.67,873.33 2723.33,873.33 2723.33,860 2710,860 2710,846.67 2236.67,846.67 "/>
    <polygon class="fil2" points="1153.33,846.67 1043.33,846.67 1043.33,860 1000,860 1000,873.33 973.33,873.33 973.33,886.67 946.67,886.67 946.67,903.33 903.33,903.33 903.33,916.67 890,916.67 890,930 863.33,930 863.33,943.33 850,943.33 850,956.67 833.33,956.67 833.33,970 820,970 820,986.67 806.67,986.67 806.67,1000 793.33,1000 793.33,1026.67 780,1026.67 780,1040 766.67,1040 766.67,1070 750,1070 750,1123.33 766.67,1123.33 766.67,1153.33 780,1153.33 780,1166.67 793.33,1166.67 793.33,1180 806.67,1180 806.67,1206.67 820,1206.67 820,1220 833.33,1220 833.33,1236.67 850,1236.67 850,1263.33 863.33,1263.33 863.33,1276.67 876.67,1276.67 876.67,1290 890,1290 890,1303.33 903.33,1303.33 903.33,1320 916.67,1320 916.67,1333.33 933.33,1333.33 933.33,1346.67 946.67,1346.67 946.67,1373.33 960,1373.33 960,1386.67 973.33,1386.67 973.33,1403.33 986.67,1403.33 986.67,1416.67 1000,1416.67 1000,1430 1016.67,1430 1016.67,1443.33 1030,1443.33 1030,1456.67 1043.33,1456.67 1043.33,1470 1056.67,1470 1056.67,1486.67 1070,1486.67 1070,1500 1083.33,1500 1083.33,1513.33 1100,1513.33 1100,1526.67 1113.33,1526.67 1113.33,1540 1126.67,1540 1126.67,1553.33 1140,1553.33 1140,1570 1153.33,1570 1153.33,1583.33 1166.67,1583.33 1166.67,1596.67 1183.33,1596.67 1183.33,1610 1196.67,1610 1196.67,1623.33 1223.33,1623.33 1223.33,1636.67 1293.33,1636.67 1293.33,1653.33 1333.33,1653.33 1333.33,1666.67 1363.33,1666.67 1363.33,1680 1390,1680 1390,1706.67 1403.33,1706.67 1403.33,1803.33 1416.67,1803.33 1416.67,1820 1446.67,1820 1446.67,1833.33 1460,1833.33 1460,1846.67 1486.67,1846.67 1486.67,1860 1500,1860 1500,1873.33 1516.67,1873.33 1516.67,1886.67 1543.33,1886.67 1543.33,1903.33 1556.67,1903.33 1556.67,1916.67 1570,1916.67 1570,1930 1600,1930 1600,1943.33 1613.33,1943.33 1613.33,1956.67 1653.33,1956.67 1653.33,1930 1666.67,1930 1666.67,1903.33 1683.33,1903.33 1683.33,1886.67 1696.67,1886.67 1696.67,1860 1710,1860 1710,1803.33 1723.33,1803.33 1723.33,1666.67 1710,1666.67 1710,1610 1696.67,1610 1696.67,1583.33 1683.33,1583.33 1683.33,1553.33 1666.67,1553.33 1666.67,1526.67 1653.33,1526.67 1653.33,1513.33 1640,1513.33 1640,1500 1626.67,1500 1626.67,1486.67 1613.33,1486.67 1613.33,1470 1600,1470 1600,1456.67 1570,1456.67 1570,1443.33 1543.33,1443.33 1543.33,1430 1516.67,1430 1516.67,1416.67 1473.33,1416.67 1473.33,1403.33 1403.33,1403.33 1403.33,1386.67 1320,1386.67 1320,1373.33 1236.67,1373.33 1236.67,1360 1153.33,1360 1153.33,1346.67 1100,1346.67 1100,1333.33 1070,1333.33 1070,1320 1043.33,1320 1043.33,1290 1030,1290 1030,1206.67 1043.33,1206.67 1043.33,1193.33 1056.67,1193.33 1056.67,1166.67 1083.33,1166.67 1083.33,1153.33 1100,1153.33 1100,1136.67 1140,1136.67 1140,1123.33 1280,1123.33 1280,1136.67 1306.67,1136.67 1306.67,1153.33 1333.33,1153.33 1333.33,1166.67 1350,1166.67 1350,1193.33 1363.33,1193.33 1363.33,1220 1376.67,1220 1376.67,1236.67 1666.67,1236.67 1666.67,1110 1653.33,1110 1653.33,1083.33 1640,1083.33 1640,1053.33 1626.67,1053.33 1626.67,1026.67 1613.33,1026.67 1613.33,1013.33 1600,1013.33 1600,1000 1583.33,1000 1583.33,986.67 1570,986.67 1570,970 1556.67,970 1556.67,956.67 1543.33,956.67 1543.33,943.33 1530,943.33 1530,930 1516.67,930 1516.67,916.67 1486.67,916.67 1486.67,903.33 1460,903.33 1460,886.67 1433.33,886.67 1433.33,873.33 1403.33,873.33 1403.33,860 1363.33,860 1363.33,846.67 1250,846.67 1250,833.33 1153.33,833.33 "/>
    <path class="fil3" d="M3306.29 2653.33l0 -17.31 -12.96 0 -26.67 0.75c0,10.09 1.87,7.93 -2.92,13.65l-15.5 11.17c-10.5,9.8 -11.1,-2.98 -11.58,18.42l-26.67 0 0 13.33 -26.67 0 0 13.33 -30 0 0 13.33 -40 0 0 16.67 -30 0 0 13.33 -83.33 0 0 13.33 -96.67 0 0 13.33 -153.33 0 0 -13.33 -110 0 0 -13.33 -96.67 0 0 -13.33 -70 0 0 -16.67 -40 0 0 -13.33 -56.67 0 0 -13.33 -70 0 0 -13.33 -26.67 0 0 -13.33 -43.33 0 0 -13.33 -26.67 0 0 -16.67 -43.33 0 0 -13.33 -40 0 0 -13.33 -26.67 0 0 -13.33 -43.33 0 0 -13.33 -40 0c-0.81,-36.29 -16.67,11.28 -16.67,-30l-26.67 0 0 -13.33 -40 0 0 -13.33 -30 0 0 -13.33 -26.67 0 0 -13.33 -26.67 0 0 -13.33 -30 0 0 -16.67 -26.67 0 0 -13.33 -26.67 0c-0.78,-35.22 -15.88,8.55 -16.67,-26.67l-26.67 0 0 -13.33 -40 0c-0.81,-36.29 -16.67,11.28 -16.67,-30l-26.67 0c-0.76,-33.83 -12.58,7.17 -13.33,-26.67l-43.33 0c-0.75,-33.83 -12.58,7.17 -13.33,-26.67l-26.67 0c-0.77,-34.76 -13.33,9.65 -13.33,-30l-30 0c-0.76,-33.83 -12.58,7.17 -13.33,-26.67l-26.67 0c-0.76,-33.83 -12.58,7.17 -13.33,-26.67l-30 0 0 -13.33 -26.67 0c0,-10.86 1.59,-7.2 -2.86,-13.8l-17.47 -15.86c-4.76,-4.85 -5.81,10.15 -6.34,-13.67l-30 0c-0.53,-23.84 2.41,-5.18 -8.18,-15.15l-3.51 -3.15c-14.25,-13.39 -14.57,-3.89 -14.97,-21.7l-26.67 0 0 -16.67 -30 0c-0.53,-23.85 2.41,-5.18 -8.19,-15.15l-3.51 -3.16c-14.25,-13.39 -14.57,-3.89 -14.97,-21.69l-26.67 0c-0.35,-16 0.4,-10.09 -16.63,-23.37l-14.11 -12.56c-9.92,-13.56 -12.05,3.81 -12.59,-20.74l-26.67 0c-0.75,-33.83 -12.58,7.17 -13.33,-26.67l-30 0c-0.55,-24.41 0.19,-7.24 -8.19,-15.15 -0.5,-0.47 -1.3,-1.06 -1.8,-1.53 -0.5,-0.47 -1.21,-1.16 -1.7,-1.63l-18.39 -21.61c-10.02,-11.7 -9.34,9.4 -9.92,-16.74l-26.67 0c-0.54,-24.09 -2.91,-7.74 -15.12,-18.21l-25.24 -24.77c-2.49,-3.82 -2.72,0.98 -2.98,-10.35l-26.67 0c0,-23.19 -0.97,-11.72 -9.9,-20.1l-16.83 -13.16c-0.54,-0.44 -1.24,-1.12 -1.76,-1.58l-36.6 -36.73c-0.49,-0.48 -1.22,-1.14 -1.71,-1.62 -0.49,-0.48 -1.15,-1.21 -1.64,-1.7 -0.48,-0.48 -1.11,-1.25 -1.59,-1.74 -0.49,-0.48 -1.13,-1.24 -1.62,-1.72l-5.37 -4.62c-5.48,-5.43 -6.3,8.44 -6.3,-17.03l-30 0 0 -13.33 -13.33 0 0 -26.67 -13.33 0 0 -13.33 -26.67 0c-0.56,-24.94 1.49,-4.35 -8.23,-15.11 -0.46,-0.51 -1.21,-1.15 -1.65,-1.68l-70.25 -69.75c-0.49,-0.48 -1.15,-1.21 -1.63,-1.7l-10.04 -9.96c-0.46,-0.52 -1.13,-1.23 -1.56,-1.77 -0.44,-0.55 -0.96,-1.39 -1.38,-1.96l-21.86 -21.46c-13.52,-13.8 -5.73,-16.21 -23.4,-16.61l0 -26.67 -26.67 0 0 -13.33 -13.33 0 0 -30 -16.67 0 0 -13.33 -26.67 0 0 -26.67c-11.53,-0.26 -6.97,-0.26 -12.12,-4.54l-31.13 -35.54c-6.46,-5.22 -1.9,-0.87 -6.11,-3.89l-8.63 -8.04c-7.35,-5.98 13.38,-4.09 -12.01,-4.66l0 -26.67c-24.34,-0.54 -7.52,-0.19 -16.76,-9.91 -0.47,-0.5 -1.2,-1.17 -1.67,-1.67l-19.72 -23.62c-5.83,-6.03 -2.95,-7.87 -15.19,-8.14l0 -26.67c-10.86,0 -7.2,1.59 -13.8,-2.86l-15.87 -17.47c-4.85,-4.76 10.15,-5.8 -13.67,-6.33l0 -30c-33.83,-0.75 7.17,-12.58 -26.67,-13.33l0 -26.67c-25.13,-0.56 -2.88,1.86 -16.79,-9.88 -0.53,-0.44 -1.33,-1.02 -1.89,-1.44 -18.85,-14.62 -2.45,-18.18 -24.66,-18.67l0 -26.67c-33.83,-0.75 7.17,-12.58 -26.67,-13.33l0 -26.67 -13.33 0 0 -30 -13.33 0 0 -26.67c-39.65,0 4.76,-12.56 -30,-13.33l0 -30c-33.83,-0.75 7.17,-12.58 -26.67,-13.33l0 -40 -13.33 0 0 -30c-34.76,-0.77 9.65,-13.33 -30,-13.33l0 -40 -13.33 0 0 -43.33 -13.33 0 0 -26.67 -13.33 0 0 -43.33 -13.33 0 0 -40 -13.33 0 0 -70 -16.67 0 0 -70 -13.33 0 0 -96.67 -13.33 0 0 -70 13.33 0 0 -53.33 13.33 0 0 -56.67 16.67 0 0 -56.67 13.33 0 0 -26.67c33.83,-0.75 -7.17,-12.58 26.67,-13.33l0 -30 13.33 0 0 -26.67c18.83,-0.42 7.15,-2.07 24.82,-15.18l8.46 -8.21c0.48,-0.48 1.19,-1.18 1.67,-1.66l40.2 -43.13c8.37,-7.91 7.64,9.26 8.18,-15.15l30 0 0 -13.33 26.67 0 0 -13.33 26.67 0c0.78,-34.76 13.33,9.65 13.33,-30l43.33 0 0 -13.33 56.67 0 0 -13.33 53.33 0 0 -13.33 70 0 0 -13.33 -83.33 0 0 13.33 -96.67 0 0 13.33 -56.67 0 0 13.33 -26.67 0 0 13.33 -26.67 0 0 16.67 -43.33 0c-0.53,23.84 2.41,5.17 -8.19,15.15l-13.93 12.74c-5.77,6.94 -4,-12.81 -4.56,12.11l-30 0c-0.44,19.9 -3.03,7.28 -21.82,28.17l-26.6 30.07c-0.49,0.48 -1.22,1.15 -1.71,1.63 -23.37,23.37 -12.55,23.46 -33.2,23.46l0 26.67 -13.33 0 0 30 -13.33 0 0 26.67 -13.33 0 0 26.67 -13.33 0 0 43.33 -13.33 0 0 40 -16.67 0 0 236.67 16.67 0 0 70 13.33 0 0 43.33 13.33 0 0 40 13.33 0 0 56.67 13.33 0 0 40 13.33 0 0 30 16.67 0 0 26.67 13.33 0 0 26.67 13.33 0 0 30 13.33 0 0 26.67 13.33 0 0 26.67 13.33 0 0 30 16.67 0 0 26.67c33.83,0.75 -7.17,12.58 26.67,13.33l0 26.67c35.22,0.78 -8.55,15.88 26.67,16.67l0 26.67 13.33 0 0 26.67c12.78,0 11.7,0.86 18.54,8.13l9.46 10.54c0.56,0.81 1.69,3.61 2.27,4.4 4.09,5.61 -11.01,6.39 13.07,6.93l0 26.67c33.83,0.75 -7.17,12.58 26.67,13.33l0 26.67c36.29,0.81 -11.28,16.67 30,16.67l0 26.67c23.84,0.53 5.18,-2.41 15.15,8.18l12.74 13.93c6.94,5.76 -12.81,4 12.11,4.55l0 30c11.13,0.25 6.19,0.12 10.35,2.98 0.55,0.37 1.24,1.13 1.76,1.57l3.04 3.63c0.47,0.5 1.06,1.3 1.53,1.8l41.2 38.8c6.94,5.77 -12.81,4 12.11,4.56l0 30c23.74,0.53 5.3,-2.19 15.15,8.18l21.57 21.76c3.1,3.13 2.92,3.54 4.78,5.22 0.51,0.46 1.22,1.15 1.75,1.58l20.09 16.57c0.49,0.48 1.26,1.1 1.75,1.59l73.39 73.28c1.21,1.09 2.42,2.8 4.78,5.22 3.42,3.5 2.22,1.91 5.09,4.91 9.61,10.07 -4.13,11.19 18.31,11.69l0 30c11.13,0.25 6.19,0.13 10.35,2.98l32.91 33.76c6.62,5.39 1.67,0.71 6.11,3.89l8.63 8.04c7.34,5.98 -13.38,4.09 12.01,4.66l0 56.67 13.33 0 0 56.67 13.33 0 0 40 13.33 0 0 43.33 13.33 0 0 26.67c23.31,0 16,5.79 25.11,14.89 0.48,0.48 1.21,1.15 1.7,1.64l6.47 6.86c0.49,0.48 1.25,1.11 1.74,1.6l10.18 13.16c0.41,0.57 0.97,1.38 1.41,1.93l28.3 28.36c0.49,0.48 1.26,1.11 1.75,1.59l32.15 27.85c5.73,7.01 3.98,-12.83 4.54,12.13l26.67 0 0 16.67 26.67 0 0 13.33 30 0 0 13.33 26.67 0 0 13.33 26.67 0 0 13.33 100 0 0 13.33 83.33 0 0 16.67 26.67 0c0.75,33.83 12.58,-7.17 13.33,26.67l26.67 0c0.54,24.49 -1.63,6.08 4.83,11.83l18.85 14.48c4.71,4.89 5.78,-10.16 6.31,13.69l26.67 0 0 16.67 26.67 0c0.55,24.49 -1.63,6.08 4.83,11.83l18.85 14.48c4.7,4.89 5.78,-10.16 6.31,13.69l26.67 0c0.75,33.83 12.58,-7.17 13.33,26.67l30 0c0,39.65 12.56,-4.76 13.33,30l26.67 0 0 13.33 26.67 0 0 13.33 30 0c0.53,23.84 -2.41,5.18 8.19,15.15 0.5,0.47 1.3,1.06 1.8,1.53l8.51 8.16c7.94,7.31 8.17,-4.72 8.17,18.5l43.33 0 0 13.33 26.67 0c0.76,33.83 12.58,-7.17 13.33,26.67l26.67 0 0 13.33 30 0c0.78,34.76 13.33,-9.65 13.33,30l26.67 0 0 13.33 30 0 0 13.33 26.67 0 0 13.33 26.67 0 0 13.33 30 0 0 13.33 26.67 0 0 16.67 40 0 0 13.33 30 0 0 13.33 26.67 0 0 13.33 26.67 0 0 13.33 43.33 0 0 13.33 40 0 0 16.67 30 0 0 13.33 26.67 0 0 13.33 56.67 0 0 13.33 40 0 0 13.33 30 0 0 13.33 40 0 0 16.67 56.67 0 0 13.33 70 0 0 13.33 40 0 0 13.33 70 0 0 13.33 123.33 0 0 13.33 320 0 0 -13.33 83.33 0 0 -13.33 43.33 0 0 -13.33 40 0 0 -13.33 30 0 0 -13.33 40 0c0,-10.86 -1.59,-7.2 2.86,-13.8 0.39,-0.57 1.18,-1.19 1.63,-1.71 0.45,-0.52 1.33,-1.03 1.81,-1.52l14.03 -12.64c4.76,-4.85 5.81,10.15 6.33,-13.67l30 0c0.27,-12.08 4.59,-11.76 11.44,-18.56 5.99,-5.94 2.85,-7.83 15.23,-8.11l-0.37 -13.33z"/>
    <path class="fil4" d="M3363.86 1790l-1.01 -25.75c-27.61,-0.8 -2.44,3.14 -15.53,-8.19 -0.45,-0.39 -1.1,-1.11 -1.57,-1.49l-16.36 -14.28c-0.42,-0.5 -1.07,-1.22 -1.47,-1.72l-7.7 -11.58c-0.44,-0.68 -0.86,-1.58 -1.35,-2.23l-34.89 -35.18c-0.45,-0.49 -1.07,-1.25 -1.53,-1.75l-35.67 -31.53c-4.44,-3.2 6.06,-2.69 -9.09,-3.11l-2.28 -29.09 -22.1 -0.75c-6.39,-18.69 7.77,-14.24 -15.33,-15.14l-1.4 -25.01c-35.54,-0.76 10.73,-11.89 -31.99,-11.89 0,-31.59 -9.64,-5.24 -14.62,-29.26l-22.41 -0.74 -0.01 12.96 -12.59 0c-0.29,180 4.72,362.21 -2.59,541.31l-291.45 -0.57 -0.7 -1222.97 96.77 0.28 1.18 28.78 31.54 2.54 0 -16.97c-12.67,-32.74 -15.68,5.58 -16.4,-26.67l-43.33 0 0 -13.33 -70 0 0 13.33 -13.33 0 0 1250 13.33 0 0 13.33 293.33 0 0 -13.33 13.33 0 0 -540 26.67 0 0 26.67c28.2,0.63 1.52,-1.02 20.63,12.7l40.87 42.46c0.46,0.51 1.24,1.13 1.71,1.62l30.17 29.83c5.35,5.39 1.26,2.53 6.54,6.8 6.88,5.56 1.17,0.46 6.14,3.86l45.65 47.69c0.48,0.49 1.11,1.25 1.59,1.74l20 20c0.49,0.48 1.25,1.11 1.74,1.6 26.96,26.62 21.02,-1.93 21.61,25.05l13.87 0z"/>
    <path class="fil5" d="M1863.33 500l0 -13.33 -13.33 0 0 -16.67 -30 0 0 -13.33 -26.67 0c-0.75,-33.83 -12.58,7.17 -13.33,-26.67l-30 0c-0.76,-33.83 -12.58,7.17 -13.33,-26.67l-40 0 0 -16.67 -30 0c-0.75,-33.83 -12.58,7.17 -13.33,-26.67l-26.67 0 0 -13.33 -43.33 0 0 -13.33 -26.67 0c-0.78,-34.76 -13.33,9.65 -13.33,-30l-26.67 0 0 -13.33 -43.33 0 0 -13.33 -26.67 0 0 -13.33 -30 0 0 -13.33 -40 0 0 -13.33 -42.65 0 0 14.96 -55.64 -0.23 0 -12.31 -68.38 -1.59 0 12.5 40 0 0 13.33 56.67 0 0 13.33 56.67 0 0 13.33 26.67 0 0 13.33 43.33 0 0 16.67 26.67 0 0 13.33 40 0 0 13.33 43.33 0 0 13.33 26.67 0 0 13.33 30 0 0 13.33 40 0 0 16.67 26.67 0c0.78,35.22 15.88,-8.55 16.67,26.67l40 0 0 13.33 26.67 0 0 13.33 30 0 0 13.33 26.67 0 0 16.67 26.67 0 0 13.33 30 0z"/>
    <path class="fil6" d="M3320 2332.08l-13.31 1.5 -0.02 39.75c-24.66,0.55 -4.12,-3.35 -15.19,8.14l-9.47 10.53c-0.56,0.81 -1.69,3.61 -2.27,4.4 -4.09,5.61 11.01,6.4 -13.07,6.93l0 26.67 -16.67 0 0 13.33 -26.67 0c-0.75,33.83 -12.58,-7.17 -13.33,26.67l-26.67 0 0 16.67 -30 0 0 13.33 -26.67 0 0 13.33 -26.67 0 0 12.73 65.22 -1.81c0.98,-22.44 -0.46,-5.33 7.68,-10.94l15.19 -11.69c13.43,-10.35 9.82,6.81 10.79,-12.87l35.44 -4.2c0.37,-16.26 3.94,-11.49 5.3,-27 25.38,-2.39 25.31,-9.04 29.33,-11.61 4.72,-3.03 -3.88,-2.69 10.09,-3.11l-1.47 -22.83c24.88,-5.27 9.72,1.71 22.52,-14.3 6.58,-8.23 6.65,-6.99 6.65,-19.24l14.78 0c0.04,11.71 1.93,19.6 -0.31,30.72 -7.27,36.14 -5.25,-18.17 -16.59,51.57l-12.05 0.01 0.95 27.9 -12.01 11.09c-0.44,0.52 -1.04,1.34 -1.5,1.86l-26.78 21.84c-11.62,7.56 9.15,7.83 -15.23,8.54l-4.76 26.93 -21.33 5.5 -3.17 24.25 27.93 0c0.54,-24.24 0.27,-7.6 8.14,-15.19l10.45 -9.55c29.96,-21.68 -9.19,-17.83 24.74,-18.59l0 -26.67c33.83,-0.75 -7.17,-12.58 26.67,-13.33l0 -26.67 13.33 0 0 -30 13.33 0 0 -26.67 16.67 0 0 -70 13.33 0 0 -25.12 -13.36 0 -0.01 -16.43 -18.09 0 0 13.64 -11.87 0z"/>
    <path class="fil7" d="M3293.33 2636.02l12.96 0 0 17.31 13.7 0c0,-20.39 -1.61,-9.3 9.91,-20.1l18.35 -14.99c8.15,-7.5 -10.22,-7.69 15.08,-8.25l0 -26.67c33.83,-0.76 -7.17,-12.58 26.67,-13.33l0 -30 13.33 0 0 -53.33 13.33 0 0 -30 16.67 0 0 -83.33 -16.67 0 0 43.33 -13.33 0 0 40 -13.33 0 0 30 -13.33 0 0 40 -13.33 0 0 26.67c-24.66,0.55 -5.93,-1.68 -11.76,4.91l-16.47 16.87c-0.51,0.46 -1.03,1.33 -1.54,1.79 -5.04,4.54 10.86,5.89 -13.57,6.44l0 26.67c-33.83,0.76 7.17,12.58 -26.67,13.33l0 12.69z"/>
    <polygon class="fil8" points="3320,2332.08 3331.87,2332.08 3331.87,2318.44 3349.96,2318.44 3349.97,2334.87 3363.33,2334.87 3363.33,2220 3350,2220 3350,2250 3333.33,2250 3333.33,2290 3320,2290 "/>
    <polygon class="fil9" points="1933.33,540 1933.33,526.67 1916.67,526.67 1916.67,513.33 1890,513.33 1890,500 1863.33,500 1863.33,513.33 1876.67,513.33 1876.67,526.67 1903.33,526.67 1903.33,540 "/>
    <polygon class="fil10" points="2043.33,610 2043.33,596.67 2030,596.67 2030,583.33 2000,583.33 2000,596.67 2016.67,596.67 2016.67,610 "/>
    <polygon class="fil11" points="1933.33,540 1933.33,553.33 1960,553.33 1960,540 "/>
    <polygon class="fil10" points="2000,583.33 2000,570 1973.33,570 1973.33,583.33 "/>
    <polygon class="fil10" points="2043.33,610 2043.33,623.33 2070,623.33 2070,610 "/>
    <polygon class="fil12" points="2083.33,653.33 2100,653.33 2100,636.67 2083.33,636.67 "/>
   </g>
   <g>
    <path class="fil13" d="M4911.76 1259.32c-103.74,0 -184.6,-28.03 -242.59,-84.09 -57.99,-56.06 -86.99,-134.67 -86.99,-235.83l0 -372.11 228.1 0 0 365.34c0,51.55 9.34,88.11 28.03,109.7 18.69,21.59 43.81,32.38 75.39,32.38 32.22,0 57.51,-10.79 75.87,-32.38 18.36,-21.59 27.54,-58.15 27.54,-109.7l0 -365.34 224.24 0 0 372.11c0,101.16 -29,179.77 -86.99,235.83 -57.99,56.06 -138.86,84.09 -242.6,84.09zm427.2 -15.46l0 -528.69 207.8 0 0 154.64 -41.56 -44.46c20.62,-39.95 48.49,-69.91 83.61,-89.89 35.11,-19.97 74.26,-29.96 117.43,-29.96 40.59,0 77.32,8.21 110.19,24.65 32.86,16.43 58.8,42.04 77.8,76.84 19.01,34.8 28.51,79.9 28.51,135.31l0 301.56 -218.43 0 0 -263.86c0,-32.86 -5.8,-56.22 -17.4,-70.07 -11.6,-13.85 -27.38,-20.78 -47.36,-20.78 -14.82,0 -28.51,3.38 -41.08,10.15 -12.56,6.76 -22.55,17.88 -29.96,33.34 -7.41,15.46 -11.11,36.41 -11.11,62.83l0 248.39 -218.43 0zm678.5 0l0 -528.69 218.43 0 0 528.69 -218.43 0zm109.22 -571.21c-39.95,0 -71.85,-10.63 -95.69,-31.9 -23.84,-21.26 -35.76,-47.68 -35.76,-79.25 0,-31.57 11.92,-57.99 35.76,-79.26 23.84,-21.26 55.74,-31.89 95.69,-31.89 39.95,0 71.84,9.99 95.69,29.96 23.84,19.98 35.76,45.75 35.76,77.32 0,33.5 -11.92,61.05 -35.76,82.64 -23.84,21.58 -55.74,32.38 -95.69,32.38zm433 580.88c-45.75,0 -88.11,-10.95 -127.09,-32.86 -38.98,-21.91 -70.07,-53.32 -93.27,-94.24 -23.2,-40.91 -34.8,-89.72 -34.8,-146.43 0,-56.7 11.6,-105.51 34.8,-146.43 23.2,-40.92 54.29,-72.49 93.27,-94.72 38.98,-22.23 81.35,-33.34 127.09,-33.34 48.97,0 88.11,9.67 117.43,29 29.32,19.33 50.58,49.13 63.79,89.4 13.21,40.27 19.81,92.3 19.81,156.09 0,62.5 -7.09,113.89 -21.26,154.16 -14.18,40.27 -36.09,70.24 -65.72,89.89 -29.64,19.65 -67.66,29.48 -114.05,29.48zm52.19 -170.11c16.11,0 30.61,-3.87 43.49,-11.6 12.89,-7.73 23.2,-19.33 30.93,-34.8 7.73,-15.46 11.6,-34.47 11.6,-57.02 0,-23.2 -3.87,-42.53 -11.6,-57.99 -7.73,-15.46 -18.04,-27.06 -30.93,-34.8 -12.89,-7.73 -27.38,-11.6 -43.49,-11.6 -16.11,0 -30.61,3.87 -43.49,11.6 -12.89,7.73 -23.2,19.33 -30.93,34.8 -7.73,15.46 -11.6,34.8 -11.6,57.99 0,22.55 3.87,41.56 11.6,57.02 7.73,15.46 18.04,27.06 30.93,34.8 12.89,7.73 27.39,11.6 43.49,11.6zm82.15 347.94l0 -258.06 9.67 -193.3 0.97 -193.31 0 -71.52 207.8 0 0 716.19 -218.43 0zm535.45 -177.84c-41.88,0 -79.74,-8.54 -113.57,-25.61 -33.83,-17.07 -60.41,-43.81 -79.74,-80.22 -19.33,-36.41 -29,-83.28 -29,-140.63l0 -291.89 218.43 0 0 254.19c0,37.37 6.12,63.47 18.36,78.29 12.24,14.82 29,22.23 50.26,22.23 12.89,0 24.97,-3.39 36.24,-10.15 11.28,-6.76 20.46,-18.04 27.55,-33.83 7.09,-15.79 10.63,-36.57 10.63,-62.34l0 -248.39 218.43 0 0 528.69 -207.8 0 0 -152.71 41.56 41.56c-18.69,41.24 -45.26,71.69 -79.74,91.33 -34.47,19.65 -71.69,29.48 -111.63,29.48zm746.15 0c-64.44,0 -120.65,-11.92 -168.66,-35.76 -48,-23.84 -85.22,-56.54 -111.63,-98.1 -26.42,-41.56 -39.63,-88.44 -39.63,-140.63 0,-53.48 13.05,-100.84 39.15,-142.08 26.09,-41.24 61.86,-73.46 107.28,-96.65 45.43,-23.2 96.49,-34.8 153.19,-34.8 52.19,0 100.36,10.31 144.5,30.93 44.14,20.62 79.57,51.22 106.31,91.82 26.74,40.59 40.11,90.85 40.11,150.78 0,7.73 -0.32,16.27 -0.96,25.61 -0.65,9.34 -1.29,17.88 -1.93,25.61l-406.91 0 0 -105.35 290.92 0 -82.15 28.03c0,-20.62 -3.7,-38.18 -11.11,-52.68 -7.41,-14.5 -17.56,-25.77 -30.44,-33.83 -12.89,-8.06 -28.35,-12.08 -46.39,-12.08 -18.04,0 -33.67,4.03 -46.87,12.08 -13.21,8.06 -23.36,19.33 -30.45,33.83 -7.09,14.5 -10.63,32.06 -10.63,52.68l0 32.86c0,22.55 4.51,41.88 13.53,57.99 9.02,16.11 21.91,28.19 38.66,36.24 16.75,8.06 37.05,12.08 60.89,12.08 24.48,0 44.62,-3.22 60.41,-9.67 15.78,-6.44 32.38,-16.11 49.78,-29l114.05 115.02c-25.77,27.71 -57.51,48.81 -95.2,63.31 -37.7,14.5 -82.96,21.75 -135.8,21.75z"/>
    <path class="fil13" d="M4758.35 2200.35l0 -448.04 -176.17 0 0 -83.53 451.07 0 0 83.53 -176.18 0 0 448.04 -98.72 0zm489.04 5.31c-45.06,0 -84.42,-8.98 -118.08,-26.96 -33.67,-17.97 -59.74,-42.65 -78.22,-74.04 -18.48,-31.39 -27.72,-67.08 -27.72,-107.07 0,-40.5 8.98,-76.32 26.96,-107.45 17.97,-31.13 42.78,-55.56 74.42,-73.28 31.64,-17.72 67.71,-26.58 108.21,-26.58 39.49,0 74.67,8.61 105.56,25.82 30.88,17.21 55.18,41.51 72.9,72.9 17.72,31.39 26.58,68.34 26.58,110.87 0,4.05 -0.13,8.61 -0.38,13.67 -0.25,5.06 -0.63,9.87 -1.14,14.43l-337.93 0 0 -63.03 287.81 0 -37.21 19.74c0.51,-23.29 -4.3,-43.79 -14.43,-61.51 -10.13,-17.72 -23.92,-31.64 -41.39,-41.77 -17.46,-10.13 -37.59,-15.19 -60.37,-15.19 -23.29,0 -43.67,5.06 -61.13,15.19 -17.46,10.13 -31.13,24.17 -41.01,42.15 -9.87,17.97 -14.81,39.11 -14.81,63.41l0 15.19c0,24.3 5.57,45.81 16.71,64.55 11.14,18.73 26.83,33.16 47.08,43.28 20.25,10.13 43.54,15.19 69.87,15.19 22.78,0 43.28,-3.55 61.51,-10.63 18.22,-7.09 34.43,-18.22 48.6,-33.41l50.88 58.47c-18.22,21.26 -41.13,37.59 -68.72,48.98 -27.59,11.39 -59.11,17.09 -94.54,17.09zm467.78 0c-42.53,0 -80.37,-8.98 -113.53,-26.96 -33.16,-17.97 -59.11,-42.65 -77.84,-74.04 -18.73,-31.39 -28.09,-67.08 -28.09,-107.07 0,-40.5 9.36,-76.32 28.09,-107.45 18.73,-31.13 44.68,-55.56 77.84,-73.28 33.16,-17.72 71,-26.58 113.53,-26.58 39.49,0 74.29,7.97 104.41,23.92 30.12,15.95 53.03,39.36 68.72,70.24l-72.9 42.52c-12.15,-19.24 -26.96,-33.41 -44.42,-42.52 -17.47,-9.11 -36.33,-13.67 -56.57,-13.67 -23.29,0 -44.3,5.06 -63.03,15.19 -18.73,10.13 -33.41,24.68 -44.05,43.67 -10.63,18.98 -15.94,41.64 -15.94,67.96 0,26.33 5.31,48.98 15.94,67.96 10.63,18.98 25.31,33.54 44.05,43.67 18.73,10.13 39.74,15.19 63.03,15.19 20.25,0 39.11,-4.56 56.57,-13.67 17.46,-9.11 32.27,-23.29 44.42,-42.53l72.9 42.53c-15.69,30.37 -38.6,53.79 -68.72,70.24 -30.12,16.46 -64.93,24.68 -104.41,24.68zm251.35 -5.31l0 -563.46 94.93 0 0 267.3 -20.5 -33.41c14.17,-25.82 34.8,-45.69 61.89,-59.61 27.08,-13.92 58.35,-20.88 93.78,-20.88 32.4,0 61.38,6.33 86.95,18.98 25.57,12.66 45.69,32.02 60.37,58.09 14.68,26.07 22.02,59.61 22.02,100.62l0 232.37 -94.93 0 0 -220.22c0,-35.94 -8.48,-62.78 -25.44,-80.5 -16.96,-17.72 -40.63,-26.58 -71,-26.58 -22.28,0 -42.02,4.56 -59.23,13.67 -17.21,9.11 -30.5,22.66 -39.87,40.63 -9.37,17.97 -14.05,40.63 -14.05,67.96l0 205.03 -94.93 0zm520.18 0l0 -405.51 90.37 0 0 109.35 -15.94 -33.41c14.17,-25.82 34.8,-45.69 61.89,-59.61 27.08,-13.92 58.35,-20.88 93.78,-20.88 32.4,0 61.38,6.33 86.95,18.98 25.57,12.66 45.69,32.02 60.37,58.09 14.68,26.07 22.02,59.61 22.02,100.62l0 232.37 -94.93 0 0 -220.22c0,-35.94 -8.48,-62.78 -25.44,-80.5 -16.96,-17.72 -40.63,-26.58 -71,-26.58 -22.28,0 -42.02,4.56 -59.23,13.67 -17.21,9.11 -30.5,22.66 -39.87,40.63 -9.37,17.97 -14.05,40.63 -14.05,67.96l0 205.03 -94.93 0zm703.19 5.31c-41.51,0 -78.47,-8.98 -110.87,-26.96 -32.4,-17.97 -57.96,-42.65 -76.7,-74.04 -18.73,-31.39 -28.09,-67.08 -28.09,-107.07 0,-40.5 9.36,-76.32 28.09,-107.45 18.73,-31.13 44.3,-55.56 76.7,-73.28 32.4,-17.72 69.36,-26.58 110.87,-26.58 42.02,0 79.36,8.86 112.01,26.58 32.65,17.72 58.22,42.02 76.7,72.9 18.48,30.88 27.72,66.83 27.72,107.83 0,40 -9.24,75.69 -27.72,107.07 -18.48,31.39 -44.04,56.07 -76.7,74.04 -32.65,17.97 -69.99,26.96 -112.01,26.96zm0 -81.25c23.29,0 44.05,-5.06 62.27,-15.19 18.22,-10.13 32.53,-24.81 42.91,-44.04 10.38,-19.24 15.57,-41.77 15.57,-67.59 0,-26.32 -5.19,-48.98 -15.57,-67.96 -10.38,-18.98 -24.68,-33.54 -42.91,-43.67 -18.22,-10.12 -38.73,-15.19 -61.51,-15.19 -23.29,0 -43.92,5.06 -61.89,15.19 -17.97,10.13 -32.27,24.68 -42.91,43.67 -10.63,18.98 -15.94,41.64 -15.94,67.96 0,25.82 5.31,48.35 15.94,67.59 10.63,19.24 24.93,33.92 42.91,44.04 17.97,10.13 38.35,15.19 61.13,15.19zm307.55 75.94l0 -563.46 94.93 0 0 563.46 -94.93 0zm401.71 5.31c-41.51,0 -78.47,-8.98 -110.87,-26.96 -32.4,-17.97 -57.96,-42.65 -76.7,-74.04 -18.73,-31.39 -28.09,-67.08 -28.09,-107.07 0,-40.5 9.36,-76.32 28.09,-107.45 18.73,-31.13 44.3,-55.56 76.7,-73.28 32.4,-17.72 69.36,-26.58 110.87,-26.58 42.02,0 79.36,8.86 112.01,26.58 32.65,17.72 58.22,42.02 76.7,72.9 18.48,30.88 27.72,66.83 27.72,107.83 0,40 -9.24,75.69 -27.72,107.07 -18.48,31.39 -44.04,56.07 -76.7,74.04 -32.65,17.97 -69.99,26.96 -112.01,26.96zm0 -81.25c23.29,0 44.05,-5.06 62.27,-15.19 18.22,-10.13 32.53,-24.81 42.91,-44.04 10.38,-19.24 15.57,-41.77 15.57,-67.59 0,-26.32 -5.19,-48.98 -15.57,-67.96 -10.38,-18.98 -24.68,-33.54 -42.91,-43.67 -18.22,-10.12 -38.73,-15.19 -61.51,-15.19 -23.29,0 -43.92,5.06 -61.89,15.19 -17.97,10.13 -32.27,24.68 -42.91,43.67 -10.63,18.98 -15.94,41.64 -15.94,67.96 0,25.82 5.31,48.35 15.94,67.59 10.63,19.24 24.93,33.92 42.91,44.04 17.97,10.13 38.35,15.19 61.13,15.19zm491.32 228.57c-37.46,0 -74.04,-4.93 -109.73,-14.81 -35.69,-9.87 -64.93,-24.17 -87.7,-42.91l42.52 -71.38c17.72,14.68 40.12,26.45 67.2,35.31 27.09,8.86 54.55,13.29 82.39,13.29 44.55,0 77.2,-10.25 97.96,-30.76 20.76,-20.5 31.13,-51.26 31.13,-92.26l0 -72.14 7.59 -91.89 -3.04 -91.89 0 -98.72 90.37 0 0 344c0,73.41 -18.73,127.45 -56.19,162.13 -37.46,34.68 -91.63,52.02 -162.51,52.02zm-12.15 -170.86c-38.48,0 -73.28,-8.23 -104.41,-24.68 -31.14,-16.45 -55.69,-39.36 -73.66,-68.72 -17.97,-29.36 -26.96,-63.79 -26.96,-103.28 0,-38.98 8.98,-73.15 26.96,-102.52 17.97,-29.36 42.52,-52.15 73.66,-68.35 31.13,-16.2 65.94,-24.3 104.41,-24.3 34.43,0 65.31,6.83 92.65,20.5 27.33,13.67 49.23,34.93 65.69,63.79 16.45,28.86 24.68,65.81 24.68,110.87 0,45.06 -8.23,82.14 -24.68,111.25 -16.45,29.11 -38.35,50.63 -65.69,64.55 -27.34,13.92 -58.22,20.88 -92.65,20.88zm14.43 -80.5c23.79,0 45.06,-4.94 63.79,-14.81 18.73,-9.87 33.29,-23.54 43.67,-41.01 10.38,-17.46 15.57,-37.59 15.57,-60.37 0,-22.78 -5.19,-42.91 -15.57,-60.37 -10.38,-17.46 -24.93,-30.88 -43.67,-40.25 -18.73,-9.37 -40,-14.05 -63.79,-14.05 -23.8,0 -45.19,4.68 -64.17,14.05 -18.98,9.37 -33.67,22.78 -44.04,40.25 -10.38,17.46 -15.57,37.59 -15.57,60.37 0,22.78 5.19,42.91 15.57,60.37 10.38,17.47 25.06,31.14 44.04,41.01 18.98,9.87 40.37,14.81 64.17,14.81zm340.96 98.72l0 -405.51 94.93 0 0 405.51 -94.93 0zm47.84 -472.33c-17.72,0 -32.27,-5.57 -43.67,-16.71 -11.39,-11.14 -17.09,-24.55 -17.09,-40.24 0,-16.2 5.7,-29.74 17.09,-40.63 11.39,-10.88 25.94,-16.33 43.67,-16.33 17.72,0 32.28,5.19 43.67,15.57 11.39,10.38 17.09,23.42 17.09,39.11 0,16.7 -5.57,30.76 -16.71,42.15 -11.14,11.39 -25.82,17.09 -44.04,17.09zm362.22 477.65c-45.06,0 -84.42,-8.98 -118.08,-26.96 -33.67,-17.97 -59.74,-42.65 -78.22,-74.04 -18.48,-31.39 -27.72,-67.08 -27.72,-107.07 0,-40.5 8.98,-76.32 26.96,-107.45 17.97,-31.13 42.78,-55.56 74.42,-73.28 31.64,-17.72 67.71,-26.58 108.21,-26.58 39.49,0 74.67,8.61 105.56,25.82 30.88,17.21 55.18,41.51 72.9,72.9 17.72,31.39 26.58,68.34 26.58,110.87 0,4.05 -0.13,8.61 -0.38,13.67 -0.25,5.06 -0.63,9.87 -1.14,14.43l-337.93 0 0 -63.03 287.81 0 -37.21 19.74c0.51,-23.29 -4.3,-43.79 -14.43,-61.51 -10.13,-17.72 -23.92,-31.64 -41.39,-41.77 -17.46,-10.13 -37.59,-15.19 -60.37,-15.19 -23.29,0 -43.67,5.06 -61.13,15.19 -17.46,10.13 -31.13,24.17 -41.01,42.15 -9.87,17.97 -14.81,39.11 -14.81,63.41l0 15.19c0,24.3 5.57,45.81 16.71,64.55 11.14,18.73 26.83,33.16 47.08,43.28 20.25,10.13 43.54,15.19 69.87,15.19 22.78,0 43.28,-3.55 61.51,-10.63 18.22,-7.09 34.43,-18.22 48.6,-33.41l50.88 58.47c-18.22,21.26 -41.13,37.59 -68.72,48.98 -27.59,11.39 -59.11,17.09 -94.54,17.09zm407.03 0c-33.92,0 -66.44,-4.43 -97.58,-13.29 -31.14,-8.86 -55.81,-19.62 -74.04,-32.28l36.45 -72.14c18.22,11.65 39.99,21.26 65.31,28.86 25.31,7.59 50.63,11.39 75.94,11.39 29.87,0 51.51,-4.05 64.93,-12.15 13.41,-8.1 20.12,-18.98 20.12,-32.65 0,-11.14 -4.56,-19.62 -13.67,-25.44 -9.11,-5.82 -21.01,-10.25 -35.69,-13.29 -14.68,-3.04 -31.01,-5.82 -48.98,-8.35 -17.97,-2.53 -35.94,-5.95 -53.92,-10.25 -17.97,-4.3 -34.3,-10.63 -48.98,-18.98 -14.68,-8.35 -26.58,-19.62 -35.69,-33.79 -9.11,-14.17 -13.67,-32.91 -13.67,-56.19 0,-25.82 7.34,-48.22 22.02,-67.21 14.68,-18.98 35.31,-33.67 61.89,-44.04 26.58,-10.38 58.09,-15.57 94.54,-15.57 27.34,0 54.93,3.04 82.77,9.11 27.85,6.07 50.88,14.68 69.11,25.82l-36.45 72.14c-19.24,-11.65 -38.6,-19.62 -58.09,-23.92 -19.49,-4.3 -38.85,-6.46 -58.09,-6.46 -28.85,0 -50.24,4.3 -64.17,12.91 -13.93,8.61 -20.89,19.49 -20.89,32.65 0,12.15 4.56,21.26 13.67,27.34 9.11,6.07 21.01,10.89 35.69,14.43 14.68,3.54 31.01,6.45 48.98,8.73 17.97,2.28 35.81,5.7 53.54,10.25 17.72,4.56 34.05,10.76 48.98,18.61 14.93,7.85 26.96,18.86 36.07,33.03 9.11,14.18 13.67,32.65 13.67,55.43 0,25.31 -7.47,47.34 -22.4,66.07 -14.94,18.73 -36.07,33.29 -63.41,43.67 -27.34,10.38 -59.99,15.57 -97.96,15.57z"/>
   </g>
  </g>
 </g>
</svg>
